<?xml version="1.0" encoding="iso-8859-1"?>
<!-- Generator: Adobe Illustrator 19.0.0, SVG Export Plug-In . SVG Version: 6.00 Build 0)  -->
<svg xmlns="http://www.w3.org/2000/svg" xmlns:xlink="http://www.w3.org/1999/xlink" version="1.1" id="Layer_1" x="0px" y="0px" viewBox="0 0 511.999 511.999" style="enable-background:new 0 0 511.999 511.999;" xml:space="preserve">
<path style="fill:#669FF2;" d="M332.873,335.296l-1.931-62.706l-2.707-88.171l-2.707-88.16l-1.974-64.227  c-0.41-13.342-11.346-23.944-24.688-23.944h-85.733c-13.342,0-24.278,10.602-24.688,23.944l-1.974,64.227l-2.707,88.16  l-2.707,88.171l-1.931,62.706c-0.421,13.935,10.753,25.464,24.699,25.464h104.349C322.12,360.761,333.293,349.231,332.873,335.296z"/>
<path style="fill:#3678C6;" d="M199.98,335.296l1.931-62.706l2.707-88.171l2.707-88.16l1.974-64.227  c0.41-13.342,11.346-23.944,24.688-23.944h-20.851c-13.342,0-24.278,10.602-24.688,23.944l-1.974,64.227l-2.707,88.16l-2.707,88.171  l-1.931,62.706c-0.421,13.935,10.753,25.464,24.699,25.464h20.851C210.733,360.761,199.559,349.231,199.98,335.296z"/>
<path style="fill:#F9DB87;" d="M287.547,360.756v111.607c0,17.429-14.129,31.547-31.547,31.547  c-17.429,0-31.547-14.118-31.547-31.547V360.756H287.547z"/>
<g>
	<path style="fill:#E5B94C;" d="M246.023,472.364V360.756h-21.571v111.607c0,17.429,14.118,31.547,31.547,31.547   c3.787,0,7.418-0.669,10.783-1.893C254.67,497.613,246.023,486.003,246.023,472.364z"/>
	<rect x="224.455" y="360.761" style="fill:#E5B94C;" width="63.095" height="24.699"/>
</g>
<path style="fill:#EA587F;" d="M308.174,360.761H203.826c-13.946,0-25.119-11.53-24.699-25.464l1.931-62.706h149.885l1.931,62.706  C333.293,349.231,322.12,360.761,308.174,360.761z"/>
<polygon style="fill:#44B9B1;" points="330.942,272.59 181.058,272.59 183.765,184.419 328.235,184.419 "/>
<polygon style="fill:#FFD41D;" points="328.235,184.419 183.765,184.419 186.472,96.26 325.528,96.26 "/>
<path style="fill:#CE3E6B;" d="M199.98,335.296l1.931-62.706h-20.851l-1.931,62.706c-0.421,13.935,10.753,25.464,24.699,25.464  h20.851C210.733,360.761,199.559,349.231,199.98,335.296z"/>
<polygon style="fill:#1F998D;" points="183.765,184.419 181.058,272.59 201.91,272.59 204.617,184.419 "/>
<polygon style="fill:#FFA91F;" points="186.472,96.26 183.765,184.419 204.617,184.419 207.324,96.26 "/>
<path d="M340.958,335.047L331.64,31.785C331.093,13.962,316.697,0,298.868,0h-85.733c-17.828,0-32.225,13.962-32.774,31.785  l-9.32,303.268c-0.27,8.95,3.015,17.416,9.248,23.84c6.23,6.421,14.588,9.957,23.536,9.957h12.537v42.749  c0,4.467,3.621,8.089,8.089,8.089s8.089-3.622,8.089-8.089V368.85h46.916v103.513c0,12.935-10.523,23.458-23.458,23.458  s-23.458-10.523-23.458-23.458v-34.879c0-4.467-3.621-8.089-8.089-8.089s-8.089,3.622-8.089,8.089v34.879  c0,21.856,17.781,39.636,39.636,39.636c21.856,0,39.636-17.781,39.636-39.636V368.85h12.539c8.948,0,17.307-3.537,23.537-9.958  C337.945,352.468,341.228,344.001,340.958,335.047z M213.134,16.178h85.733c9.033,0,16.325,7.073,16.603,16.103l1.717,55.89h-2.942  c-4.468,0-8.089,3.622-8.089,8.089s3.621,8.089,8.089,8.089h3.439l2.211,71.982H192.104l2.212-71.982h96.201  c4.468,0,8.089-3.622,8.089-8.089s-3.621-8.089-8.089-8.089h-95.704l1.717-55.889C196.809,23.251,204.103,16.178,213.134,16.178z   M320.101,347.626c-3.157,3.254-7.392,5.045-11.927,5.045H203.826c-4.534,0-8.77-1.791-11.926-5.044  c-3.16-3.256-4.824-7.549-4.688-12.082l1.686-54.866h44.456c4.468,0,8.089-3.622,8.089-8.089s-3.621-8.089-8.089-8.089h-43.959  l2.212-71.993h128.785l2.212,71.993h-64.444c-4.468,0-8.089,3.622-8.089,8.089s3.621,8.089,8.089,8.089H323.1l1.686,54.861  C324.925,340.078,323.26,344.37,320.101,347.626z"/>
<g>
</g>
<g>
</g>
<g>
</g>
<g>
</g>
<g>
</g>
<g>
</g>
<g>
</g>
<g>
</g>
<g>
</g>
<g>
</g>
<g>
</g>
<g>
</g>
<g>
</g>
<g>
</g>
<g>
</g>
</svg>
