<?xml version="1.0" encoding="iso-8859-1"?>
<!-- Generator: Adobe Illustrator 19.0.0, SVG Export Plug-In . SVG Version: 6.00 Build 0)  -->
<svg xmlns="http://www.w3.org/2000/svg" xmlns:xlink="http://www.w3.org/1999/xlink" version="1.1" id="Layer_1" x="0px" y="0px" viewBox="0 0 512 512" style="enable-background:new 0 0 512 512;" xml:space="preserve">
<path style="fill:#FCEDCA;" d="M374.76,167.389c-5.925-5.925-13.433-10.254-21.845-12.295l0,0  c10.113-8.553,16.53-21.317,16.53-35.583c0-12.858-5.209-24.497-13.644-32.932c-8.424-8.424-20.062-13.633-32.92-13.633h-5.42  c0-35.267-28.462-63.881-63.658-64.151c2.041,5.268,3.168,10.993,3.168,16.988c0,25.74-20.625,46.647-46.248,47.14v0.023h-21.599  c-25.717,0-46.565,20.848-46.565,46.565c0,12.858,5.209,24.497,13.633,32.932c0.927,0.927,1.889,1.807,2.886,2.651l0,0  c-20.355,4.974-35.466,23.335-35.466,45.227c0,12.858,5.209,24.497,13.644,32.932c0.446,0.446,0.903,0.892,1.373,1.314  c8.295,7.649,19.37,12.319,31.548,12.319h171.652c12.178,0,23.253-4.669,31.559-12.319c9.221-8.517,15.005-20.707,15.005-34.246  C388.393,187.462,383.184,175.824,374.76,167.389z"/>
<g>
	<path style="fill:#DDC89F;" d="M161.926,233.253c-8.435-8.435-13.644-20.074-13.644-32.932c0-21.892,15.111-40.253,35.466-45.227   c-0.997-0.845-1.959-1.725-2.886-2.651c-8.424-8.435-13.633-20.074-13.633-32.932c0-25.717,20.848-46.565,46.565-46.565h21.599   v-0.023c25.623-0.493,46.248-21.399,46.248-47.14c0-3.795-0.454-7.48-1.303-11.012c-8.076-3.76-17.057-5.904-26.536-5.976   c2.041,5.268,3.168,10.993,3.168,16.988c0,25.74-20.625,46.647-46.248,47.14v0.023h-21.599c-25.717,0-46.565,20.848-46.565,46.565   c0,12.858,5.209,24.497,13.633,32.932c0.927,0.927,1.889,1.807,2.886,2.651c-20.355,4.974-35.466,23.335-35.466,45.227   c0,12.858,5.209,24.497,13.644,32.932c0.446,0.446,0.903,0.892,1.373,1.314c8.295,7.649,19.37,12.319,31.548,12.319h24.67   c-12.178,0-23.253-4.669-31.548-12.319C162.83,234.144,162.372,233.698,161.926,233.253z"/>
	<path style="fill:#DDC89F;" d="M156.192,152.442c0.927,0.927,1.889,1.807,2.886,2.651h193.838   c6.754-5.711,11.845-13.308,14.491-21.969H144.585C146.839,140.507,150.871,147.115,156.192,152.442z"/>
	<path style="fill:#DDC89F;" d="M137.256,233.253c0.446,0.446,0.903,0.892,1.373,1.314h234.759   c6.539-6.04,11.337-13.932,13.582-22.838H125.024C127.109,220.004,131.403,227.4,137.256,233.253z"/>
</g>
<path style="fill:#FFD41D;" d="M137.614,236.825c-4.058,3.132-6.683,8.033-6.683,13.556v10.348h8.987l1.807,18.771l6.03,62.544  l23.84,20.383l14.665,119.041c1.525,12.413,12.061,21.728,24.567,21.728h90.361c12.495,0,23.03-9.315,24.567-21.728l14.665-119.041  l23.828-20.383l7.838-81.315h8.997v-10.348c0-5.525-2.63-10.426-6.693-13.559l0.217-2.256h-4.076  c-2.026-0.844-4.246-1.314-6.577-1.314H148.048c-2.33,0-4.55,0.47-6.575,1.314L137.614,236.825z"/>
<g>
	<path style="fill:#FFA91F;" d="M137.614,236.825c-4.058,3.132-6.683,8.033-6.683,13.556v10.348h8.987l1.807,18.771l6.03,62.544   l23.84,20.383l14.665,119.041c1.525,12.413,12.061,21.728,24.567,21.728h24.67c-12.506,0-23.042-9.315-24.567-21.728   l-14.665-119.041l-23.84-20.383l-6.03-62.544l-1.807-18.771h-8.987v-10.348c0-5.522,2.624-10.424,6.683-13.556l1.881-1.266   l1.979-0.994c2.025-0.844,4.245-1.314,6.575-1.314h-24.67c-2.33,0-4.55,0.47-6.575,1.314L137.614,236.825z"/>
	<polygon style="fill:#FFA91F;" points="364.248,342.044 339.986,362.798 172.03,362.798 147.756,342.044  "/>
	<polygon style="fill:#FFA91F;" points="372.085,260.729 370.242,279.501 141.726,279.501 139.919,260.729  "/>
	<path style="fill:#FFA91F;" d="M256.008,481.468h-69.747c1.525,12.413,12.061,21.728,24.567,21.728h45.18h45.18   c12.506,0,23.042-9.315,24.567-21.728H256.008z"/>
</g>
<path d="M397.19,200.325c0-14.782-5.755-28.686-16.209-39.154c-3.847-3.847-8.21-7.084-12.942-9.626  c6.583-9.272,10.205-20.421,10.205-32.031c0-14.788-5.762-28.693-16.222-39.153c-9.777-9.778-22.57-15.446-36.286-16.139  C321.412,28.371,290.831,0.284,253.868,0c-0.023,0-0.046,0-0.068,0c-2.89,0-5.597,1.418-7.24,3.799  c-1.657,2.398-2.018,5.461-0.964,8.18c1.708,4.408,2.573,9.054,2.573,13.809c0,20.744-16.875,37.943-37.618,38.342  c-0.16,0.002-0.318,0.011-0.475,0.022h-20.955c-30.528,0-55.364,24.836-55.364,55.364c0,11.634,3.565,22.724,10.181,32.024  c-17.652,9.449-29.128,27.966-29.128,48.787c0,12.82,4.335,24.971,12.305,34.797c-3.129,4.285-4.981,9.558-4.981,15.259v10.348  c0,4.859,3.94,8.799,8.799,8.799h0.993l7.071,73.365c0.219,2.268,1.309,4.363,3.041,5.844l21.242,18.158l4.552,36.956  c0.549,4.458,4.342,7.724,8.723,7.724c0.359,0,0.722-0.022,1.086-0.067c4.823-0.594,8.251-4.986,7.658-9.809l-3.754-30.473h131.95  c4.861,0,8.799-3.94,8.799-8.799s-3.938-8.799-8.799-8.799H174.842l-10.115-8.647h182.551l-12.579,10.758  c-1.669,1.429-2.745,3.43-3.013,5.611l-14.665,119.04c-0.989,7.987-7.797,14.01-15.835,14.01h-90.361  c-8.046,0-14.853-6.02-15.835-14.005l-6.048-49.094c-0.595-4.823-4.987-8.252-9.809-7.658c-4.823,0.594-8.251,4.986-7.658,9.809  l6.048,49.092c2.064,16.791,16.379,29.453,33.3,29.453h90.361c16.905,0,31.22-12.659,33.3-29.451l14.249-115.655l21.232-18.158  c1.732-1.481,2.82-3.575,3.04-5.843l7.072-73.365h1.007c4.861,0,8.799-3.94,8.799-8.799v-10.348c0-5.71-1.86-10.991-4.998-15.28  C392.771,225.308,397.19,213.011,397.19,200.325z M139.731,251.93v-1.549c0-4.593,3.732-8.33,8.318-8.33h215.906  c4.593,0,8.33,3.737,8.33,8.33v1.549H139.731z M160.222,163.897h143.886c4.861,0,8.799-3.94,8.799-8.799  c0-4.859-3.938-8.799-8.799-8.799H162.488c-0.023-0.023-0.049-0.047-0.073-0.07c-7.132-7.142-11.06-16.63-11.06-26.715  c0-20.824,16.941-37.766,37.766-37.766h21.599c0.294,0,0.587-0.014,0.874-0.043c29.938-0.953,54.173-25.892,54.173-55.919  c0-2.308-0.14-4.598-0.418-6.864c24.727,5.534,43.31,27.722,43.31,54.027c0,4.859,3.938,8.799,8.799,8.799h5.42  c10.088,0,19.569,3.927,26.699,11.056c7.137,7.137,11.068,16.622,11.068,26.709c0,10.111-4.043,19.705-11.165,26.784h-18.975  c-4.861,0-8.799,3.94-8.799,8.799c0,4.859,3.938,8.799,8.799,8.799h21.221c6.331,1.703,12.131,5.039,16.806,9.714  c7.132,7.141,11.06,16.629,11.06,26.714c0,9.165-3.376,18.037-9.373,24.898c-2.007-0.5-4.105-0.77-6.264-0.77H148.05  c-2.159,0-4.255,0.27-6.261,0.77c-6.062-6.894-9.38-15.64-9.38-24.898C132.408,183.193,143.798,168.357,160.222,163.897z   M356.82,327.384H155.18l-5.576-57.856h212.792L356.82,327.384z"/>
<g>
</g>
<g>
</g>
<g>
</g>
<g>
</g>
<g>
</g>
<g>
</g>
<g>
</g>
<g>
</g>
<g>
</g>
<g>
</g>
<g>
</g>
<g>
</g>
<g>
</g>
<g>
</g>
<g>
</g>
</svg>
