<?xml version="1.0" encoding="iso-8859-1"?>
<!-- Generator: Adobe Illustrator 19.0.0, SVG Export Plug-In . SVG Version: 6.00 Build 0)  -->
<svg xmlns="http://www.w3.org/2000/svg" xmlns:xlink="http://www.w3.org/1999/xlink" version="1.1" id="Layer_1" x="0px" y="0px" viewBox="0 0 512.001 512.001" style="enable-background:new 0 0 512.001 512.001;" xml:space="preserve">
<path style="fill:#BC6491;" d="M374.418,126.896c0,11.919-1.758,23.429-5.043,34.273c-14.69,48.691-59.883,84.146-113.375,84.146  c-53.476,0-98.685-35.454-113.375-84.146c-3.287-10.844-5.043-22.354-5.043-34.273c0-2.71,0.09-5.453,0.288-8.132  C142.035,57.168,193.33,8.477,256,8.477s113.966,48.691,118.13,110.286C374.328,121.443,374.418,124.184,374.418,126.896z"/>
<path style="fill:#92496A;" d="M178.794,161.168c-3.287-10.844-5.043-22.354-5.043-34.273c0-2.71,0.09-5.453,0.288-8.132  c3.756-55.55,45.849-100.599,100.046-108.907C268.188,8.952,262.15,8.477,256,8.477c-62.67,0-113.966,48.691-118.13,110.286  c-0.197,2.681-0.288,5.422-0.288,8.132c0,11.919,1.756,23.429,5.043,34.273c14.69,48.691,59.899,84.146,113.375,84.146  c6.152,0,12.188-0.491,18.087-1.394C228.705,236.962,191.795,204.26,178.794,161.168z"/>
<path style="fill:#FFD41D;" d="M373.454,159.961l-0.384,1.209l-7.087,22.278l-7.143,22.515h-0.023l-92.051,289.683  c-1.662,5.256-6.205,7.878-10.76,7.878c-4.544,0-9.11-2.622-10.772-7.878l-43.708-137.534l-55.509-174.664l-2.068-6.499  l-5.018-15.779l-0.203-0.644l-0.181-0.565L373.454,159.961L373.454,159.961z"/>
<path style="fill:#BC6491;" d="M391.199,139.451c0,10.677-7.633,19.537-17.75,21.445c-0.621,0.121-1.257,0.212-1.893,0.272  c-0.712,0.076-1.439,0.121-2.18,0.121h-226.75c-0.743,0-1.469-0.045-2.18-0.121c-5.15-0.515-9.784-2.802-13.252-6.286  c-2.348-2.362-4.165-5.24-5.24-8.466c-0.757-2.18-1.151-4.513-1.151-6.967c0-9.632,6.239-17.795,14.887-20.688  c2.181-0.727,4.513-1.121,6.937-1.121h226.75c2.423,0,4.756,0.393,6.937,1.121c3.241,1.075,6.133,2.892,8.496,5.255  C388.761,127.971,391.199,133.423,391.199,139.451z"/>
<path style="fill:#FFA91F;" d="M138.726,160.526l5.222,16.423l2.068,6.499l55.509,174.664l43.708,137.534  c1.662,5.256,6.228,7.878,10.772,7.878c4.555,0,9.099-2.622,10.76-7.878l5.767-18.149l-37.941-119.385l-55.509-174.664l-2.068-6.499  l-5.018-15.779l-0.203-0.644L138.726,160.526z"/>
<path style="fill:#92496A;" d="M160.259,154.883c-2.348-2.362-4.165-5.24-5.24-8.466c-0.757-2.181-1.151-4.513-1.151-6.967  c0-9.632,6.239-17.795,14.887-20.688c2.181-0.727,4.513-1.121,6.937-1.121h-33.067c-2.423,0-4.755,0.393-6.937,1.121  c-8.648,2.892-14.887,11.055-14.887,20.688c0,2.454,0.393,4.786,1.151,6.967c1.076,3.226,2.892,6.104,5.24,8.466  c3.468,3.484,8.102,5.77,13.252,6.286c0.712,0.076,1.439,0.121,2.18,0.121h33.067c-0.743,0-1.469-0.045-2.18-0.121  C168.362,160.654,163.726,158.366,160.259,154.883z"/>
<polygon style="fill:#FFA91F;" points="373.275,160.526 368.05,176.95 143.948,176.95 138.93,161.171 138.726,160.526 "/>
<path d="M399.676,139.451c0-8.095-3.151-15.704-8.875-21.428c-2.544-2.544-5.546-4.618-8.798-6.109  c-3.488-29.733-17.35-57.175-39.416-77.781c-3.421-3.195-8.786-3.012-11.981,0.41c-3.195,3.421-3.012,8.786,0.41,11.981  c17.941,16.754,29.611,38.72,33.479,62.641H147.503c3.871-23.92,15.543-45.888,33.483-62.64  c20.42-19.069,47.062-29.571,75.018-29.571c20.173,0,39.897,5.511,57.039,15.937c4.002,2.435,9.215,1.162,11.648-2.837  c2.432-4,1.163-9.215-2.837-11.648C302.056,6.365,279.285,0,256.003,0c-32.266,0-63.018,12.122-86.588,34.133  c-22.069,20.609-35.934,48.059-39.422,77.8c-10.68,4.89-17.668,15.564-17.668,27.518c0,3.372,0.545,6.652,1.586,9.648  c1.459,4.376,3.973,8.442,7.275,11.765c3.116,3.13,6.887,5.516,10.985,7.025l45.383,142.763c1.147,3.608,4.483,5.911,8.077,5.911  c0.851,0,1.717-0.129,2.57-0.4c4.462-1.419,6.929-6.185,5.51-10.647l-43.155-135.748H361.44L258.682,493.09  c-0.512,1.617-1.738,1.957-2.678,1.957c-0.944,0-2.177-0.339-2.692-1.968l-50.966-160.356c-1.42-4.462-6.192-6.929-10.647-5.51  c-4.462,1.419-6.929,6.186-5.51,10.647l50.96,160.341c2.649,8.383,10.051,13.8,18.854,13.8c8.796,0,16.193-5.416,18.839-13.787  l104.985-330.325C391.571,163.579,399.676,152.317,399.676,139.451z M371.829,152.575c-0.347,0.068-0.708,0.119-1.172,0.164  c-0.466,0.05-0.885,0.073-1.283,0.073H142.625c-0.398,0-0.817-0.024-1.338-0.079c-3.061-0.306-5.933-1.666-8.082-3.825  c-1.464-1.474-2.575-3.262-3.245-5.271c-0.452-1.303-0.682-2.712-0.682-4.187c0-5.745,3.656-10.828,9.09-12.646  c1.365-0.456,2.797-0.686,4.257-0.686h226.75c1.459,0,2.891,0.231,4.267,0.689c1.927,0.639,3.715,1.747,5.171,3.203  c2.521,2.521,3.909,5.873,3.909,9.439C382.722,145.865,378.161,151.38,371.829,152.575z"/>
<g>
</g>
<g>
</g>
<g>
</g>
<g>
</g>
<g>
</g>
<g>
</g>
<g>
</g>
<g>
</g>
<g>
</g>
<g>
</g>
<g>
</g>
<g>
</g>
<g>
</g>
<g>
</g>
<g>
</g>
</svg>
