<?xml version="1.0" encoding="iso-8859-1"?>
<!-- Generator: Adobe Illustrator 19.0.0, SVG Export Plug-In . SVG Version: 6.00 Build 0)  -->
<svg xmlns="http://www.w3.org/2000/svg" xmlns:xlink="http://www.w3.org/1999/xlink" version="1.1" id="Layer_1" x="0px" y="0px" viewBox="0 0 512 512" style="enable-background:new 0 0 512 512;" xml:space="preserve">
<path style="fill:#FCEDCA;" d="M339.531,95.222c0-7.996-3.241-15.236-8.486-20.481c-5.234-5.234-12.474-8.475-20.47-8.475  c15.993,0,28.956-12.964,28.956-28.956c0-7.996-3.241-15.236-8.486-20.481c-5.234-5.234-12.474-8.475-20.47-8.475H201.431  c-15.993,0-28.956,12.964-28.956,28.956c0,7.996,3.241,15.236,8.486,20.481c5.234,5.234,12.474,8.475,20.47,8.475  c-15.993,0-28.956,12.964-28.956,28.956c0,7.996,3.241,15.236,8.486,20.481c5.234,5.234,12.474,8.475,20.47,8.475  c-15.993,0-28.956,12.964-28.956,28.956c0,7.996,3.241,15.236,8.486,20.481c5.234,5.234,12.474,8.475,20.47,8.475  c-15.993,0-28.956,12.964-28.956,28.956c0,7.996,3.241,15.236,8.486,20.481c5.234,5.234,12.474,8.475,20.47,8.475  c-15.993,0-28.956,12.964-28.956,28.956c0,7.996,3.241,15.236,8.486,20.481c5.234,5.234,12.474,8.475,20.47,8.475  c-15.993,0-28.956,12.964-28.956,28.956c0,7.996,3.241,15.236,8.486,20.481c5.234,5.234,12.474,8.475,20.47,8.475h109.143  c15.993,0,28.956-12.964,28.956-28.956c0-7.996-3.241-15.236-8.486-20.481c-5.234-5.234-12.474-8.475-20.47-8.475  c15.993,0,28.956-12.964,28.956-28.956c0-7.996-3.241-15.236-8.486-20.481c-5.234-5.234-12.474-8.475-20.47-8.475  c15.993,0,28.956-12.964,28.956-28.956c0-7.996-3.241-15.236-8.486-20.481c-5.234-5.234-12.474-8.475-20.47-8.475  c15.993,0,28.956-12.964,28.956-28.956c0-7.996-3.241-15.236-8.486-20.481c-5.234-5.234-12.474-8.475-20.47-8.475  C326.567,124.178,339.531,111.215,339.531,95.222z"/>
<path style="fill:#DDC89F;" d="M194.749,326.873c0-15.993,12.964-28.956,28.956-28.956c-7.996,0-15.236-3.241-20.47-8.475  c-5.246-5.246-8.486-12.485-8.486-20.481c0-15.993,12.964-28.956,28.956-28.956c-7.996,0-15.236-3.241-20.47-8.475  c-5.246-5.246-8.486-12.485-8.486-20.481c0-15.993,12.964-28.956,28.956-28.956c-7.996,0-15.236-3.241-20.47-8.475  c-5.246-5.246-8.486-12.485-8.486-20.481c0-15.993,12.964-28.956,28.956-28.956c-7.996,0-15.236-3.241-20.47-8.475  c-5.246-5.246-8.486-12.485-8.486-20.481c0-15.993,12.964-28.956,28.956-28.956c-7.996,0-15.236-3.241-20.47-8.475  c-5.246-5.246-8.486-12.485-8.486-20.481c0-15.993,12.964-28.956,28.956-28.956h-22.274c-15.993,0-28.956,12.964-28.956,28.956  c0,7.996,3.241,15.236,8.486,20.481c5.234,5.234,12.474,8.475,20.47,8.475c-15.993,0-28.956,12.964-28.956,28.956  c0,7.996,3.241,15.236,8.486,20.481c5.234,5.234,12.474,8.475,20.47,8.475c-15.993,0-28.956,12.964-28.956,28.956  c0,7.996,3.241,15.236,8.486,20.481c5.234,5.234,12.474,8.475,20.47,8.475c-15.993,0-28.956,12.964-28.956,28.956  c0,7.996,3.241,15.236,8.486,20.481c5.234,5.234,12.474,8.475,20.47,8.475c-15.993,0-28.956,12.964-28.956,28.956  c0,7.996,3.241,15.236,8.486,20.481c5.234,5.234,12.474,8.475,20.47,8.475c-15.993,0-28.956,12.964-28.956,28.956  c0,7.996,3.241,15.236,8.486,20.481c5.234,5.234,12.474,8.475,20.47,8.475h22.274c-7.996,0-15.236-3.241-20.47-8.475  C197.99,342.108,194.749,334.869,194.749,326.873z"/>
<path style="fill:#F9DB87;" d="M288.579,354.711v116.36c0,17.998-14.59,32.576-32.576,32.576c-17.997,0-32.576-14.578-32.576-32.576  v-116.36H288.579z"/>
<rect x="223.424" y="355.829" style="fill:#E5B94C;" width="65.152" height="25.504"/>
<g>
	<path style="fill:#44B9B1;" d="M339.531,326.873c0,15.993-12.964,28.956-28.956,28.956H201.431c-7.996,0-15.236-3.241-20.47-8.475   c-5.246-5.246-8.486-12.485-8.486-20.481c0-15.993,12.964-28.956,28.956-28.956h109.143c7.996,0,15.236,3.241,20.47,8.475   C336.29,311.637,339.531,318.877,339.531,326.873z"/>
	<path style="fill:#44B9B1;" d="M339.531,211.047c0,15.993-12.964,28.956-28.956,28.956H201.431c-7.996,0-15.236-3.241-20.47-8.475   c-5.246-5.246-8.486-12.485-8.486-20.481c0-15.993,12.964-28.956,28.956-28.956h109.143c7.996,0,15.236,3.241,20.47,8.475   C336.29,195.812,339.531,203.051,339.531,211.047z"/>
	<path style="fill:#44B9B1;" d="M339.531,95.222c0,15.993-12.964,28.956-28.956,28.956H201.431c-7.996,0-15.236-3.241-20.47-8.475   c-5.246-5.246-8.486-12.485-8.486-20.481c0-15.993,12.964-28.956,28.956-28.956h109.143c7.996,0,15.236,3.241,20.47,8.475   C336.29,79.986,339.531,87.226,339.531,95.222z"/>
</g>
<g>
	<path style="fill:#1F998D;" d="M194.749,326.873c0-15.993,12.964-28.956,28.956-28.956h-22.274   c-15.993,0-28.956,12.964-28.956,28.956c0,7.996,3.241,15.236,8.486,20.481c5.234,5.234,12.474,8.475,20.47,8.475h22.274   c-7.996,0-15.236-3.241-20.47-8.475C197.99,342.108,194.749,334.869,194.749,326.873z"/>
	<path style="fill:#1F998D;" d="M194.749,211.047c0-15.993,12.964-28.956,28.956-28.956h-22.274   c-15.993,0-28.956,12.964-28.956,28.956c0,7.996,3.241,15.236,8.486,20.481c5.234,5.234,12.474,8.475,20.47,8.475h22.274   c-7.996,0-15.236-3.241-20.47-8.475C197.99,226.283,194.749,219.044,194.749,211.047z"/>
	<path style="fill:#1F998D;" d="M194.749,95.222c0-15.993,12.964-28.956,28.956-28.956h-22.274   c-15.993,0-28.956,12.964-28.956,28.956c0,7.996,3.241,15.236,8.486,20.481c5.234,5.234,12.474,8.475,20.47,8.475h22.274   c-7.996,0-15.236-3.241-20.47-8.475C197.99,110.457,194.749,103.218,194.749,95.222z"/>
</g>
<path d="M347.884,95.222c0-9.965-3.882-19.337-10.933-26.388c-0.917-0.917-1.873-1.776-2.864-2.584  c8.412-6.847,13.798-17.276,13.798-28.942c0-9.965-3.882-19.337-10.933-26.388C329.907,3.879,320.54,0,310.574,0H201.431  c-20.572,0-37.309,16.737-37.309,37.309c0,9.967,3.882,19.337,10.932,26.387c0.917,0.917,1.873,1.776,2.864,2.584  c-8.412,6.847-13.798,17.276-13.798,28.942c0,9.967,3.882,19.337,10.932,26.387c0.917,0.917,1.873,1.776,2.864,2.584  c-8.412,6.847-13.798,17.276-13.798,28.942c0,9.967,3.882,19.337,10.932,26.387c0.917,0.917,1.873,1.776,2.864,2.584  c-8.412,6.847-13.798,17.276-13.798,28.942c0,9.967,3.882,19.337,10.932,26.387c0.917,0.917,1.873,1.776,2.864,2.584  c-8.412,6.847-13.798,17.276-13.798,28.942c0,9.967,3.882,19.337,10.932,26.387c0.917,0.917,1.873,1.776,2.864,2.584  c-8.412,6.847-13.798,17.276-13.798,28.942c0,9.967,3.882,19.337,10.932,26.387c7.043,7.043,16.41,10.922,26.377,10.922h13.643  v106.889c0,22.568,18.361,40.929,40.929,40.929s40.929-18.361,40.929-40.929v-35.465c0-4.613-3.74-8.353-8.353-8.353  c-4.613,0-8.353,3.74-8.353,8.353v35.465c0,13.357-10.866,24.223-24.223,24.223s-24.223-10.866-24.223-24.223V364.182h48.446v45.809  c0,4.613,3.74,8.353,8.353,8.353c4.613,0,8.353-3.74,8.353-8.353v-45.809h13.643c20.572,0,37.309-16.737,37.309-37.309  c0-9.965-3.882-19.337-10.933-26.388c-0.917-0.917-1.873-1.776-2.864-2.584c8.412-6.847,13.798-17.276,13.798-28.942  c0-9.965-3.882-19.337-10.933-26.388c-0.917-0.917-1.873-1.776-2.864-2.584c8.412-6.847,13.798-17.276,13.798-28.942  c0-9.965-3.882-19.337-10.933-26.388c-0.917-0.917-1.873-1.776-2.864-2.584c8.412-6.847,13.798-17.276,13.798-28.942  c0-9.965-3.882-19.337-10.933-26.388c-0.917-0.917-1.873-1.776-2.864-2.584C342.498,117.317,347.884,106.888,347.884,95.222z   M325.138,312.298c3.895,3.896,6.04,9.071,6.04,14.575c0,11.361-9.243,20.604-20.604,20.604H201.431  c-5.504,0-10.676-2.142-14.564-6.029c-3.895-3.895-6.04-9.071-6.04-14.575c0-11.361,9.243-20.604,20.604-20.604h109.143  C316.078,306.269,321.25,308.411,325.138,312.298z M325.138,254.385c3.895,3.896,6.04,9.071,6.04,14.575  c0,11.361-9.243,20.604-20.604,20.604H201.431c-5.504,0-10.676-2.142-14.564-6.029c-3.895-3.895-6.04-9.071-6.04-14.575  c0-11.361,9.243-20.604,20.604-20.604h109.143C316.078,248.357,321.25,250.498,325.138,254.385z M325.138,138.56  c3.895,3.896,6.04,9.071,6.04,14.575c0,11.361-9.243,20.604-20.604,20.604h-9.463c-4.613,0-8.353,3.74-8.353,8.353  s3.74,8.353,8.353,8.353h9.463c5.504,0,10.676,2.142,14.564,6.028c3.895,3.896,6.04,9.071,6.04,14.575  c0,11.361-9.243,20.604-20.604,20.604H201.431c-5.504,0-10.676-2.142-14.564-6.028c-3.895-3.895-6.04-9.071-6.04-14.575  c0-11.361,9.243-20.604,20.604-20.604h73.508c4.613,0,8.353-3.74,8.353-8.353s-3.74-8.353-8.353-8.353h-73.508  c-5.504,0-10.676-2.142-14.564-6.028c-3.895-3.895-6.04-9.071-6.04-14.575c0-11.361,9.243-20.604,20.604-20.604h109.143  C316.078,132.531,321.25,134.673,325.138,138.56z M201.431,115.826c-5.504,0-10.676-2.142-14.564-6.028  c-3.895-3.895-6.04-9.071-6.04-14.575c0-11.361,9.243-20.604,20.604-20.604h24.505c4.613,0,8.353-3.74,8.353-8.353  s-3.74-8.353-8.353-8.353h-24.505c-5.504,0-10.676-2.142-14.564-6.028c-3.895-3.895-6.04-9.071-6.04-14.575  c0-11.361,9.243-20.604,20.604-20.604h109.143c5.504,0,10.676,2.142,14.564,6.028c3.895,3.896,6.04,9.071,6.04,14.575  c0,11.361-9.243,20.604-20.604,20.604h-59.58c-4.613,0-8.353,3.74-8.353,8.353s3.74,8.353,8.353,8.353h59.58  c5.504,0,10.676,2.142,14.564,6.029c3.895,3.896,6.04,9.071,6.04,14.575c0,11.361-9.243,20.604-20.604,20.604H201.431z"/>
<g>
</g>
<g>
</g>
<g>
</g>
<g>
</g>
<g>
</g>
<g>
</g>
<g>
</g>
<g>
</g>
<g>
</g>
<g>
</g>
<g>
</g>
<g>
</g>
<g>
</g>
<g>
</g>
<g>
</g>
</svg>
