<?xml version="1.0" encoding="iso-8859-1"?>
<!-- Generator: Adobe Illustrator 19.0.0, SVG Export Plug-In . SVG Version: 6.00 Build 0)  -->
<svg xmlns="http://www.w3.org/2000/svg" xmlns:xlink="http://www.w3.org/1999/xlink" version="1.1" id="Layer_1" x="0px" y="0px" viewBox="0 0 512.001 512.001" style="enable-background:new 0 0 512.001 512.001;" xml:space="preserve">
<path style="fill:#F9DB87;" d="M289.736,350.286V469.62c0,18.636-15.107,33.731-33.731,33.731  c-18.636,0-33.731-15.095-33.731-33.731V350.286H289.736z"/>
<rect x="222.269" y="350.286" style="fill:#E5B94C;" width="67.462" height="26.408"/>
<path style="fill:#FCEDCA;" d="M325.642,350.286H186.358c-14.692,0-26.374-12.351-25.543-27.031l16.456-290.469  c0.761-13.539,11.97-24.137,25.532-24.137h106.395c13.573,0,24.782,10.598,25.543,24.137l16.445,290.469  C352.016,337.935,340.345,350.286,325.642,350.286z"/>
<path style="fill:#DDC89F;" d="M183.966,323.255l16.456-290.469c0.761-13.539,11.97-24.137,25.532-24.137h-23.152  c-13.562,0-24.771,10.598-25.532,24.137l-16.456,290.469c-0.83,14.68,10.852,27.031,25.543,27.031h23.152  C194.818,350.286,183.136,337.935,183.966,323.255z"/>
<path style="fill:#E5B94C;" d="M245.337,469.62V350.286h-23.064V469.62c0,18.636,15.095,33.731,33.731,33.731  c4.049,0,7.932-0.715,11.53-2.024C254.583,496.617,245.337,484.203,245.337,469.62z"/>
<path d="M359.821,322.766L343.376,32.3C342.358,14.188,327.344,0,309.197,0H202.801c-18.14,0-33.149,14.188-34.167,32.297  l-5.078,89.643c-0.27,4.769,3.378,8.854,8.146,9.124c4.747,0.262,8.854-3.377,9.124-8.146l5.078-89.647  c0.504-8.957,7.926-15.973,16.897-15.973h106.396c8.977,0,16.404,7.016,16.907,15.977l16.446,290.468  c0.265,4.702-1.368,9.174-4.598,12.593c-3.231,3.418-7.603,5.301-12.31,5.301H186.358c-4.705,0-9.076-1.884-12.309-5.305  c-3.231-3.419-4.864-7.89-4.598-12.588l9.542-168.427c0.27-4.768-3.378-8.854-8.146-9.124c-4.762-0.265-8.854,3.377-9.124,8.146  l-9.542,168.428c-0.537,9.497,2.764,18.534,9.298,25.448c6.438,6.813,15.507,10.721,24.88,10.721h27.268v110.685  c0,23.369,19.012,42.38,42.38,42.38s42.38-19.012,42.38-42.38v-42.635c0-4.777-3.871-8.649-8.649-8.649s-8.649,3.872-8.649,8.649  v42.635c0,13.83-11.252,25.082-25.082,25.082c-13.83,0-25.082-11.252-25.082-25.082V358.936h50.164v39.219  c0,4.777,3.871,8.649,8.649,8.649s8.649-3.872,8.649-8.649v-39.221h27.257c9.514,0,18.35-3.807,24.882-10.718  C357.056,341.305,360.358,332.267,359.821,322.766z"/>
<path d="M315.843,51.639c-1.428-3.392-4.93-5.594-8.619-5.313c-3.687,0.281-6.85,2.94-7.754,6.525  c-0.867,3.443,0.542,7.164,3.443,9.193c3.074,2.15,7.359,2.025,10.297-0.306C316.218,59.354,317.314,55.192,315.843,51.639z"/>
<path d="M290.473,120.832c-1.428-3.392-4.93-5.594-8.619-5.313c-3.616,0.277-6.721,2.829-7.697,6.321  c-2.156,7.715,6.948,14.013,13.413,9.299C290.771,128.805,291.989,124.497,290.473,120.832z"/>
<path d="M297.565,186.564c-1.436,3.469-0.413,7.618,2.499,9.995c2.815,2.298,6.896,2.592,10.003,0.692  c6.344-3.881,4.902-13.723-2.211-15.706C303.69,180.384,299.235,182.597,297.565,186.564z"/>
<path d="M287.567,249.933c-7.258-2.997-14.572,4.848-11.034,11.865c1.731,3.432,5.631,5.347,9.408,4.591  c3.553-0.713,6.318-3.622,6.868-7.205C293.398,255.345,291.185,251.383,287.567,249.933z"/>
<path d="M312.728,314.074c-2.768,2.77-3.304,7.198-1.297,10.555c1.868,3.125,5.629,4.777,9.194,4.018  c3.362-0.714,6.009-3.404,6.702-6.766c0.727-3.525-0.948-7.27-4.035-9.102C319.927,310.78,315.511,311.297,312.728,314.074z"/>
<path d="M188.345,292.244c-2.882,1.897-4.345,5.504-3.679,8.88c0.718,3.636,3.773,6.419,7.428,6.883  c3.592,0.457,7.15-1.475,8.771-4.694c1.663-3.3,1.017-7.384-1.599-9.998C196.372,290.427,191.748,290.003,188.345,292.244z"/>
<path d="M219.262,233.926c-0.69,3.761,1.104,7.622,4.529,9.38c3.142,1.613,7.053,1.124,9.702-1.224  c5.971-5.292,1.778-15.533-6.185-15.1C223.378,227.196,220.067,230.083,219.262,233.926z"/>
<path d="M194.111,173.81c6.438,4.239,15.117-1.733,13.189-9.293c-0.873-3.424-3.802-6.046-7.324-6.478  c-3.901-0.476-7.708,1.811-9.125,5.472C189.417,167.215,190.783,171.619,194.111,173.81z"/>
<path d="M221.717,102.427c2.087,3.055,5.929,4.504,9.508,3.521c3.354-0.921,5.828-3.83,6.267-7.27  c1-7.834-8.666-12.736-14.449-7.408C219.951,94.12,219.415,98.924,221.717,102.427z"/>
<g>
</g>
<g>
</g>
<g>
</g>
<g>
</g>
<g>
</g>
<g>
</g>
<g>
</g>
<g>
</g>
<g>
</g>
<g>
</g>
<g>
</g>
<g>
</g>
<g>
</g>
<g>
</g>
<g>
</g>
</svg>
