<?xml version="1.0" encoding="iso-8859-1"?>
<!-- Generator: Adobe Illustrator 19.0.0, SVG Export Plug-In . SVG Version: 6.00 Build 0)  -->
<svg xmlns="http://www.w3.org/2000/svg" xmlns:xlink="http://www.w3.org/1999/xlink" version="1.1" id="Layer_1" x="0px" y="0px" viewBox="0 0 512 512" style="enable-background:new 0 0 512 512;" xml:space="preserve">
<path style="fill:#B5600B;" d="M315.798,351.909H196.201c-30.413,0-54.262-26.121-51.499-56.408l21.897-239.926  c2.42-26.634,24.751-47.012,51.488-47.012h75.827c26.737,0,49.067,20.378,51.488,47.012l21.897,239.926  C370.06,325.788,346.211,351.909,315.798,351.909z"/>
<path style="fill:#F9DB87;" d="M289.392,351.909v118.136c0,18.449-14.955,33.393-33.393,33.393  c-18.449,0-33.393-14.944-33.393-33.393V351.909H289.392z"/>
<path style="fill:#FCEDCA;" d="M315.798,351.909H196.201c-30.413,0-54.262-26.121-51.499-56.408h222.596  C370.06,325.788,346.211,351.909,315.798,351.909z"/>
<path style="fill:#914D09;" d="M167.154,295.501l21.897-239.926c2.42-26.634,24.751-47.012,51.488-47.012h-22.453  c-26.737,0-49.067,20.378-51.488,47.012l-21.897,239.926c-2.763,30.288,21.086,56.408,51.499,56.408h22.452  C188.239,351.909,164.39,325.788,167.154,295.501z"/>
<path style="fill:#FCD68B;" d="M167.154,295.501h-22.453c-2.763,30.288,21.086,56.408,51.499,56.408h22.453  C188.239,351.909,164.39,325.788,167.154,295.501z"/>
<g>
	<rect x="222.607" y="351.909" style="fill:#E5B94C;" width="66.786" height="26.143"/>
	<path style="fill:#E5B94C;" d="M245.439,470.045V351.909h-22.833v118.136c0,18.449,14.944,33.393,33.393,33.393   c4.008,0,7.852-0.708,11.414-2.004C254.592,496.772,245.439,484.482,245.439,470.045z"/>
</g>
<path d="M375.824,294.722l-0.008-0.088c0-0.006-0.001-0.01-0.001-0.015L353.927,54.8C351.088,23.559,325.288,0,293.913,0h-43.048  c-4.73,0-8.562,3.834-8.562,8.562s3.832,8.562,8.562,8.562h43.048c22.459,0,40.929,16.863,42.961,39.229l21.045,230.585h-22.572  c-4.73,0-8.562,3.834-8.562,8.562c0,4.729,3.832,8.562,8.562,8.562h23.435c-0.805,9.349-4.619,18.109-11.115,25.226  c-8.277,9.066-19.594,14.058-31.869,14.058H196.201c-12.275,0-23.592-4.992-31.869-14.058c-6.498-7.117-10.31-15.876-11.115-25.226  h155.301c4.73,0,8.562-3.834,8.562-8.562c0-4.729-3.832-8.562-8.562-8.562H154.08L175.124,56.35  c2.032-22.362,20.501-39.225,42.962-39.225h5.951c4.73,0,8.562-3.834,8.562-8.562S228.767,0,224.037,0h-5.951  c-31.374,0-57.176,23.559-60.015,54.797l-21.886,239.822c0,0.006-0.001,0.011-0.001,0.017l-0.008,0.088  c-1.535,16.825,4.118,33.633,15.51,46.112c11.392,12.479,27.618,19.636,44.516,19.636h17.844v40.824  c0,4.729,3.832,8.562,8.562,8.562s8.562-3.834,8.562-8.562v-40.825h49.661v109.574c0,13.692-11.139,24.831-24.831,24.831  s-24.831-11.139-24.831-24.831v-42.493c0-4.729-3.832-8.562-8.562-8.562s-8.562,3.834-8.562,8.562v42.493  c0,23.134,18.821,41.955,41.955,41.955s41.955-18.821,41.955-41.955V360.471h17.844c16.897,0,33.122-7.158,44.515-19.637  C371.706,328.356,377.36,311.548,375.824,294.722z"/>
<g>
</g>
<g>
</g>
<g>
</g>
<g>
</g>
<g>
</g>
<g>
</g>
<g>
</g>
<g>
</g>
<g>
</g>
<g>
</g>
<g>
</g>
<g>
</g>
<g>
</g>
<g>
</g>
<g>
</g>
</svg>
