<?xml version="1.0" encoding="iso-8859-1"?>
<!-- Generator: Adobe Illustrator 19.0.0, SVG Export Plug-In . SVG Version: 6.00 Build 0)  -->
<svg xmlns="http://www.w3.org/2000/svg" xmlns:xlink="http://www.w3.org/1999/xlink" version="1.1" id="Layer_1" x="0px" y="0px" viewBox="0 0 512 512" style="enable-background:new 0 0 512 512;" xml:space="preserve">
<path style="fill:#669FF2;" d="M372.44,69.297V325.16c0,14.773-11.976,26.749-26.737,26.749H166.306  c-14.773,0-26.748-11.976-26.748-26.749V69.297c0-33.541,27.194-60.735,60.746-60.735h111.401  C345.246,8.562,372.44,35.756,372.44,69.297z"/>
<path style="fill:#4287CC;" d="M315.078,119.872L315.078,119.872c-11.349,0-20.548,9.199-20.548,20.548v211.489h41.097V140.42  C335.627,129.071,326.427,119.872,315.078,119.872z"/>
<path style="fill:#5696E2;" d="M217.474,140.421v211.488h-41.099V140.421c0-11.348,9.202-20.549,20.549-20.549  C208.273,119.872,217.474,129.073,217.474,140.421z"/>
<path style="fill:#F9DB87;" d="M289.401,351.909v118.136c0,18.449-14.955,33.393-33.393,33.393  c-18.449,0-33.393-14.944-33.393-33.393V351.909H289.401z"/>
<path style="fill:#E5B94C;" d="M245.448,470.045V351.909h-22.833v118.136c0,18.449,14.944,33.393,33.393,33.393  c4.008,0,7.852-0.708,11.414-2.004C254.6,496.772,245.448,484.482,245.448,470.045z"/>
<path style="fill:#3678C6;" d="M162.391,325.16V69.297c0-33.541,27.194-60.735,60.746-60.735h-22.833  c-33.553,0-60.746,27.194-60.746,60.735V325.16c0,14.773,11.976,26.749,26.748,26.749h22.833  C174.366,351.909,162.391,339.933,162.391,325.16z"/>
<rect x="222.617" y="351.909" style="fill:#E5B94C;" width="66.786" height="26.143"/>
<path d="M311.705,0H200.304c-14.192,0-27.836,4.259-39.458,12.319c-3.886,2.694-4.852,8.029-2.157,11.915  c2.694,3.886,8.029,4.852,11.915,2.157c8.742-6.062,19.013-9.267,29.7-9.267h111.401c28.768,0,52.173,23.405,52.173,52.173V325.16  c0,10.028-8.154,18.186-18.176,18.186h-1.513V198.085c0-4.729-3.832-8.562-8.562-8.562s-8.562,3.834-8.562,8.562v145.262h-23.972  V140.42c0-6.609,5.377-11.986,11.986-11.986s11.986,5.377,11.986,11.986v30.837c0,4.729,3.832,8.562,8.562,8.562  s8.562-3.834,8.562-8.562V140.42c0-16.051-13.058-29.111-29.111-29.111s-29.111,13.059-29.111,29.111v202.927h-59.931V140.421  c0-16.053-13.059-29.112-29.112-29.112s-29.112,13.059-29.112,29.112v202.925h-1.507c-10.028,0-18.186-8.158-18.186-18.186V69.297  c0-9.984,2.827-19.683,8.174-28.05c2.547-3.984,1.381-9.279-2.603-11.825c-3.984-2.547-9.279-1.381-11.825,2.603  c-7.111,11.125-10.869,24.013-10.869,37.272V325.16c0,19.471,15.84,35.311,35.311,35.311h47.747v28.266  c0,4.729,3.834,8.562,8.562,8.562c4.729,0,8.562-3.834,8.562-8.562v-28.266h49.661v109.574c0,13.692-11.139,24.831-24.831,24.831  c-13.692,0-24.831-11.139-24.831-24.831v-55.051c0-4.729-3.834-8.562-8.562-8.562c-4.729,0-8.562,3.834-8.562,8.562v55.051  c0,23.134,18.821,41.955,41.955,41.955c23.134,0,41.955-18.821,41.955-41.955V360.471h47.739c19.465,0,35.3-15.84,35.3-35.311  V69.297C381.002,31.087,349.915,0,311.705,0z M184.938,343.346V140.421c0-6.61,5.377-11.987,11.987-11.987  c6.61,0,11.987,5.377,11.987,11.987v202.925H184.938z"/>
<g>
</g>
<g>
</g>
<g>
</g>
<g>
</g>
<g>
</g>
<g>
</g>
<g>
</g>
<g>
</g>
<g>
</g>
<g>
</g>
<g>
</g>
<g>
</g>
<g>
</g>
<g>
</g>
<g>
</g>
</svg>
