<?xml version="1.0" encoding="iso-8859-1"?>
<!-- Generator: Adobe Illustrator 19.0.0, SVG Export Plug-In . SVG Version: 6.00 Build 0)  -->
<svg xmlns="http://www.w3.org/2000/svg" xmlns:xlink="http://www.w3.org/1999/xlink" version="1.1" id="Layer_1" x="0px" y="0px" viewBox="0 0 512 512" style="enable-background:new 0 0 512 512;" xml:space="preserve">
<path style="fill:#EA587F;" d="M373.399,126.057c0,33.36-13.911,63.478-36.267,84.841c-21.086,20.163-49.647,32.552-81.138,32.552  c-64.828,0-117.393-52.566-117.393-117.393c0-64.839,52.566-117.405,117.393-117.405C320.833,8.653,373.399,61.218,373.399,126.057z  "/>
<path style="fill:#CE3E6B;" d="M165.516,126.057c0-60.287,45.446-109.954,103.936-116.632c-4.418-0.504-8.906-0.773-13.459-0.773  c-64.828,0-117.393,52.566-117.393,117.405c0,64.828,52.566,117.393,117.393,117.393c4.555,0,9.047-0.266,13.466-0.772  C210.966,236.004,165.516,186.337,165.516,126.057z"/>
<path style="fill:#FFD41D;" d="M381.854,131.675h-4.591H134.737h-4.591c-5.883,0-10.647,4.776-10.647,10.658v0.704  c0,5.883,4.764,10.647,10.647,10.647h6.587c1.084,5.929,2.607,11.708,4.533,17.303c5.064,14.811,12.919,28.319,22.932,39.912  c7.567,8.767,16.357,16.426,26.127,22.724c-4.545,1.223-7.89,5.364-7.89,10.289v0.704c0,5.883,4.776,10.658,10.659,10.658h0.346  l3.345,17.303l31.145,161.135h-3.587c-5.883,0-10.658,4.776-10.658,10.658v0.704c0,5.883,4.776,10.647,10.658,10.647h7.844  l3.345,17.303l3.091,15.988c1.615,8.328,8.905,14.338,17.383,14.338c4.233,0,8.167-1.5,11.258-4.049  c3.08-2.538,5.306-6.125,6.114-10.289l3.091-15.988l3.345-17.303h7.844c5.883,0,10.659-4.764,10.659-10.647v-0.704  c0-5.883-4.776-10.658-10.659-10.658h-3.587l31.145-161.135l3.345-17.303h0.346c5.883,0,10.658-4.776,10.658-10.659v-0.704  c0-4.937-3.357-9.078-7.913-10.289c6.506-4.187,12.573-8.986,18.145-14.315c13.865-13.254,24.593-29.772,30.949-48.321  c1.915-5.595,3.437-11.374,4.522-17.303h6.587c5.883,0,10.647-4.764,10.647-10.647v-0.704  C392.501,136.451,387.737,131.675,381.854,131.675z"/>
<g>
	<path style="fill:#FFA91F;" d="M265.537,489.012l-3.091-15.988l-3.345-17.303h-7.844c-5.883,0-10.658-4.764-10.658-10.647v-0.704   c0-5.883,4.776-10.658,10.658-10.658h3.587l-31.145-161.135l-3.345-17.303h-0.346c-5.883,0-10.659-4.776-10.659-10.659v-0.704   c0-4.926,3.345-9.067,7.89-10.289c-9.77-6.298-18.56-13.958-26.127-22.724c-10.013-11.593-17.868-25.101-22.932-39.912   c-1.926-5.595-3.449-11.374-4.533-17.303h-6.587c-5.883,0-10.647-4.764-10.647-10.647v-0.704c0-5.883,4.764-10.658,10.647-10.658   h-22.324h-4.591c-5.883,0-10.647,4.776-10.647,10.658v0.704c0,5.883,4.764,10.647,10.647,10.647h6.587   c1.084,5.929,2.607,11.708,4.533,17.303c5.064,14.811,12.919,28.319,22.932,39.912c7.567,8.767,16.357,16.426,26.127,22.724   c-4.545,1.223-7.89,5.364-7.89,10.289v0.704c0,5.883,4.776,10.659,10.658,10.659h0.346l3.345,17.303l31.145,161.135h-3.587   c-5.883,0-10.659,4.776-10.659,10.658v0.704c0,5.883,4.776,10.647,10.659,10.647h7.844l3.345,17.303l3.091,15.988   c1.615,8.328,8.905,14.338,17.384,14.338c4.233,0,8.167-1.5,11.258-4.049c0.792-0.653,1.525-1.377,2.194-2.161   C267.522,494.876,266.137,492.105,265.537,489.012z"/>
	<path style="fill:#FFA91F;" d="M375.268,153.684c-1.084,5.929-2.607,11.708-4.522,17.303H141.265   c-1.926-5.595-3.449-11.374-4.533-17.303H375.268z"/>
	<polygon style="fill:#FFA91F;" points="318.561,255.274 315.216,272.577 196.784,272.577 193.439,255.274  "/>
	<polygon style="fill:#FFA91F;" points="279.814,455.721 276.469,473.024 235.531,473.024 232.186,455.721  "/>
</g>
<path d="M401.153,139.86c0-11.344-8.455-20.726-19.389-22.239c-2.878-43.293-27.789-82.166-66.464-102.823  c-4.215-2.249-9.454-0.66-11.706,3.555c-2.252,4.215-0.66,9.457,3.555,11.707c32.956,17.602,54.32,50.532,57.241,87.324H211.018  c-4.779,0-8.651,3.874-8.651,8.651c0,4.778,3.872,8.651,8.651,8.651h167.661c2.853,0,5.172,2.321,5.172,5.172  c0,2.852-2.321,5.172-5.172,5.172H133.323c-2.853,0-5.172-2.321-5.172-5.172c0-2.851,2.321-5.172,5.172-5.172h51.163  c4.779,0,8.651-3.874,8.651-8.651c0-4.778-3.872-8.651-8.651-8.651h-36.889c4.432-55.926,51.358-100.081,108.395-100.081  c8.841,0,17.633,1.062,26.131,3.158c4.638,1.145,9.326-1.689,10.472-6.328c1.143-4.638-1.69-9.327-6.328-10.472  C276.414,1.232,266.228,0,255.992,0C189.33,0,134.59,52.035,130.236,117.623c-10.934,1.512-19.388,10.895-19.388,22.237  c0,11.148,8.166,20.4,18.825,22.152c0.955,3.982,2.08,7.926,3.404,11.772c5.377,15.726,13.643,30.115,24.569,42.766  c5.648,6.544,11.926,12.476,18.723,17.754c-1.646,2.858-2.586,6.147-2.586,9.609v0.704c0,8.155,5.09,15.13,12.254,17.956  l31.642,163.699c-7.369,2.722-12.646,9.797-12.646,18.1v0.704c0,10.641,8.663,19.298,19.31,19.298h0.704l5.082,26.285  C232.526,503.025,243.409,512,256.005,512c6.097,0,12.05-2.14,16.758-6.024c4.71-3.88,7.944-9.322,9.107-15.323l5.081-26.281h0.709  c10.647,0,19.309-8.657,19.309-19.298v-0.704c0-8.304-5.278-15.38-12.649-18.102l31.641-163.696  c7.166-2.824,12.258-9.8,12.258-17.957v-0.704c0-3.465-0.94-6.754-2.587-9.612c3.521-2.735,6.914-5.652,10.143-8.739  c14.997-14.336,26.462-32.237,33.156-51.773c1.323-3.864,2.443-7.807,3.395-11.775C392.985,160.263,401.153,151.009,401.153,139.86z   M308.074,263.926l-31.145,161.135h-41.863l-31.145-161.135H308.074z M264.881,487.366c-0.399,2.061-1.508,3.928-3.124,5.26  c-1.645,1.355-3.634,2.072-5.754,2.072c-4.328,0-8.067-3.085-8.89-7.329l-4.446-22.995h26.66L264.881,487.366z M289.665,445.074  c0,1.1-0.9,1.996-2.006,1.996h-7.92c-0.017,0-0.036,0-0.053,0H232.31c-0.018,0-0.037,0-0.057,0h-7.911  c-1.107,0-2.007-0.895-2.007-1.996v-0.704c0-1.106,0.9-2.007,2.007-2.007h3.472c0.008,0,0.016,0,0.024,0h56.228  c0.003,0,0.008,0,0.012,0c0.005,0,0.008,0,0.013,0h3.568c1.106,0,2.006,0.901,2.006,2.007L289.665,445.074L289.665,445.074z   M333.814,213.055c-4.453,4.26-9.27,8.127-14.32,11.579c-0.196-0.006-0.391-0.02-0.587-0.02h-8.688  c-4.779,0-8.651,3.874-8.651,8.651s3.872,8.651,8.651,8.651h8.688c0.177,0,0.361,0.024,0.523,0.067  c0.715,0.19,1.485,0.874,1.485,1.929v0.704c0,1.106-0.9,2.007-2.007,2.007h-0.328c-0.007,0-0.014-0.001-0.021-0.001H193.437  c-0.007,0-0.014,0.001-0.021,0.001h-0.323c-1.107,0-2.007-0.9-2.007-2.007v-0.704c0-1.055,0.771-1.743,1.41-1.915  c0.21-0.054,0.406-0.081,0.599-0.081h90.595c4.779,0,8.651-3.874,8.651-8.651c0-4.778-3.872-8.651-8.651-8.651h-90.595  c-0.215,0-0.429,0.014-0.644,0.021c-8.028-5.493-15.324-11.998-21.707-19.393c-9.473-10.968-16.636-23.435-21.299-37.074  c-0.661-1.921-1.253-3.871-1.809-5.833h216.729c-0.554,1.963-1.144,3.917-1.804,5.845  C356.761,185.107,346.821,200.623,333.814,213.055z"/>
<g>
</g>
<g>
</g>
<g>
</g>
<g>
</g>
<g>
</g>
<g>
</g>
<g>
</g>
<g>
</g>
<g>
</g>
<g>
</g>
<g>
</g>
<g>
</g>
<g>
</g>
<g>
</g>
<g>
</g>
</svg>
