<?xml version="1.0" encoding="iso-8859-1"?>
<!-- Generator: Adobe Illustrator 19.0.0, SVG Export Plug-In . SVG Version: 6.00 Build 0)  -->
<svg xmlns="http://www.w3.org/2000/svg" xmlns:xlink="http://www.w3.org/1999/xlink" version="1.1" id="Layer_1" x="0px" y="0px" viewBox="0 0 511.999 511.999" style="enable-background:new 0 0 511.999 511.999;" xml:space="preserve">
<path style="fill:#F9DB87;" d="M288.925,354.176V470.64c0,18.188-14.744,32.92-32.92,32.92c-18.188,0-32.92-14.732-32.92-32.92  V354.176H288.925z"/>
<g>
	<path style="fill:#E5B94C;" d="M245.594,470.64V354.176h-22.51V470.64c0,18.188,14.732,32.92,32.92,32.92   c3.952,0,7.741-0.698,11.253-1.975C254.617,496.988,245.594,484.873,245.594,470.64z"/>
	<path style="fill:#E5B94C;" d="M288.925,354.176v28.362c-10.67,1.981-21.677,3.016-32.92,3.016s-22.251-1.035-32.92-3.016v-28.362   H288.925z"/>
</g>
<path style="fill:#FFD41D;" d="M435.552,187.988c0,99.166-80.393,179.558-179.547,179.558c-99.166,0-179.558-80.393-179.558-179.558  S156.839,8.441,256.005,8.441C355.159,8.441,435.552,88.822,435.552,187.988z"/>
<path style="fill:#FFA91F;" d="M393.134,187.988c0,75.737-61.404,137.128-137.128,137.128c-75.737,0-137.128-61.391-137.128-137.128  c0-75.724,61.391-137.128,137.128-137.128C331.729,50.86,393.134,112.264,393.134,187.988z"/>
<path style="fill:#FCEDCA;" d="M364.765,187.988c0,60.069-48.7,108.759-108.759,108.759c-60.069,0-108.759-48.69-108.759-108.759  c0-60.059,48.69-108.759,108.759-108.759C316.064,79.229,364.765,127.929,364.765,187.988z"/>
<path style="fill:#DDC89F;" d="M167.618,187.988c0-56.624,43.282-103.143,98.572-108.281c-3.354-0.312-6.751-0.478-10.186-0.478  c-60.069,0-108.759,48.7-108.759,108.759c0,60.069,48.69,108.759,108.759,108.759c3.435,0,6.832-0.167,10.186-0.478  C210.901,291.132,167.618,244.621,167.618,187.988z"/>
<path d="M256.005,375.987c103.657,0,187.988-84.336,187.988-187.999C443.994,84.332,359.662,0,256.005,0  C152.342,0,68.006,84.332,68.006,187.988c0,8.102,0.522,16.262,1.551,24.252c0.595,4.623,4.831,7.895,9.449,7.293  c4.623-0.595,7.89-4.826,7.293-9.449c-0.938-7.277-1.412-14.711-1.412-22.095c0-94.349,76.763-171.106,171.117-171.106  c94.349,0,171.106,76.759,171.106,171.106c0,94.354-76.757,171.117-171.106,171.117c-37.81,0-73.647-12.082-103.634-34.94  c-29.036-22.134-50.6-53.52-60.721-88.378c-1.3-4.478-5.983-7.051-10.459-5.753c-4.478,1.3-7.053,5.983-5.752,10.459  c11.121,38.306,34.808,72.789,66.699,97.098c21.773,16.597,46.352,28.02,72.504,33.863v99.184c0,22.807,18.555,41.361,41.361,41.361  s41.361-18.555,41.361-41.361v-78.716c0-4.662-3.778-8.441-8.441-8.441c-4.663,0-8.441,3.779-8.441,8.441v78.716  c0,13.498-10.981,24.479-24.479,24.479c-13.498,0-24.479-10.981-24.479-24.479v-96.223  C239.578,375.454,247.747,375.987,256.005,375.987z"/>
<path d="M256.005,333.558c80.267,0,145.569-65.302,145.569-145.569s-65.301-145.57-145.569-145.57s-145.569,65.302-145.569,145.569  S175.738,333.558,256.005,333.558z M256.005,59.301c70.958,0,128.687,57.729,128.687,128.687s-57.729,128.687-128.687,128.687  c-70.959,0-128.688-57.729-128.688-128.687S185.047,59.301,256.005,59.301z"/>
<path d="M256.005,305.261c64.665,0,117.273-52.608,117.273-117.273c0-31.321-12.2-60.77-34.351-82.922  c-3.298-3.297-8.641-3.297-11.938,0s-3.297,8.641,0,11.937c18.964,18.963,29.408,44.173,29.408,70.985  c0,55.356-45.036,100.391-100.391,100.391s-100.391-45.035-100.391-100.391S200.651,87.597,256.006,87.597  c18.825,0,37.172,5.24,53.062,15.156c3.956,2.469,9.161,1.264,11.63-2.692c2.468-3.955,1.263-9.162-2.692-11.63  c-18.573-11.589-40.012-17.715-61.999-17.715c-64.665,0-117.273,52.609-117.273,117.273S191.34,305.261,256.005,305.261z"/>
<g>
</g>
<g>
</g>
<g>
</g>
<g>
</g>
<g>
</g>
<g>
</g>
<g>
</g>
<g>
</g>
<g>
</g>
<g>
</g>
<g>
</g>
<g>
</g>
<g>
</g>
<g>
</g>
<g>
</g>
</svg>
