<?xml version="1.0" encoding="iso-8859-1"?>
<!-- Generator: Adobe Illustrator 19.0.0, SVG Export Plug-In . SVG Version: 6.00 Build 0)  -->
<svg xmlns="http://www.w3.org/2000/svg" xmlns:xlink="http://www.w3.org/1999/xlink" version="1.1" id="Layer_1" x="0px" y="0px" viewBox="0 0 512 512" style="enable-background:new 0 0 512 512;" xml:space="preserve">
<path style="fill:#B5600B;" d="M345.741,32.426v305.34c0,13.483-10.919,24.413-24.402,24.413H190.672  c-13.483,0-24.413-10.93-24.413-24.413V32.426c0-13.483,10.93-24.413,24.413-24.413h130.666  C334.822,8.013,345.741,18.943,345.741,32.426z"/>
<path style="fill:#914D09;" d="M197.514,337.766V32.426c0-13.483,10.93-24.413,24.413-24.413h-31.255  c-13.483,0-24.413,10.93-24.413,24.413v305.34c0,13.483,10.93,24.413,24.413,24.413h31.255  C208.444,362.179,197.514,351.25,197.514,337.766z"/>
<path style="fill:#F9DB87;" d="M287.255,362.177v110.559c0,17.265-13.996,31.251-31.251,31.251  c-17.265,0-31.251-13.985-31.251-31.251V362.177H287.255z"/>
<g>
	<path style="fill:#E5B94C;" d="M246.656,472.736V362.177h-21.902v110.559c0,17.265,13.985,31.251,31.251,31.251   c3.853,0,7.541-0.701,10.949-1.977C255.095,497.573,246.656,486.147,246.656,472.736z"/>
	<rect x="224.75" y="362.179" style="fill:#E5B94C;" width="62.502" height="24.467"/>
</g>
<path style="fill:#FCEDCA;" d="M345.741,32.426v152.675H166.259V32.426c0-13.483,10.93-24.413,24.413-24.413h130.666  C334.822,8.013,345.741,18.943,345.741,32.426z"/>
<path style="fill:#DDC89F;" d="M221.927,8.013h-31.255c-13.483,0-24.413,10.93-24.413,24.413v152.675h31.255V32.426  C197.514,18.943,208.444,8.013,221.927,8.013z"/>
<path d="M345.741,69.85c4.426,0,8.013-3.588,8.013-8.013V32.426C353.754,14.546,339.213,0,321.337,0H190.672  c-17.88,0-32.426,14.546-32.426,32.426v305.34c0,17.88,14.546,32.426,32.426,32.426h26.068v102.544  c0,21.65,17.614,39.264,39.264,39.264s39.264-17.614,39.264-39.264v-86.092c0-4.425-3.587-8.013-8.013-8.013  c-4.426,0-8.013,3.588-8.013,8.013v86.092c0,12.813-10.424,23.238-23.238,23.238c-12.813,0-23.238-10.424-23.238-23.238V370.192  h88.571c17.874,0,32.417-14.546,32.417-32.426V86.411c0-4.425-3.587-8.013-8.013-8.013c-4.426,0-8.013,3.588-8.013,8.013v90.678  H227.156c-4.425,0-8.013,3.588-8.013,8.013s3.588,8.013,8.013,8.013h110.572v144.652c0,9.043-7.353,16.4-16.39,16.4H190.672  c-9.043,0-16.4-7.357-16.4-16.4V193.115h28.312c4.425,0,8.013-3.588,8.013-8.013s-3.588-8.013-8.013-8.013h-28.312V32.426  c0-9.043,7.357-16.4,16.4-16.4h130.665c9.038,0,16.39,7.357,16.39,16.4v29.411C337.728,66.264,341.314,69.85,345.741,69.85z"/>
<g>
</g>
<g>
</g>
<g>
</g>
<g>
</g>
<g>
</g>
<g>
</g>
<g>
</g>
<g>
</g>
<g>
</g>
<g>
</g>
<g>
</g>
<g>
</g>
<g>
</g>
<g>
</g>
<g>
</g>
</svg>
