<?xml version="1.0" encoding="iso-8859-1"?>
<!-- Generator: Adobe Illustrator 19.0.0, SVG Export Plug-In . SVG Version: 6.00 Build 0)  -->
<svg xmlns="http://www.w3.org/2000/svg" xmlns:xlink="http://www.w3.org/1999/xlink" version="1.1" id="Layer_1" x="0px" y="0px" viewBox="0 0 512 512" style="enable-background:new 0 0 512 512;" xml:space="preserve">
<path style="fill:#669FF2;" d="M271.079,144.654c0,16.598-3.726,32.315-10.397,46.381c-17.381,36.71-54.773,62.098-98.082,62.098  c-59.922,0-108.479-48.572-108.479-108.479S102.679,36.175,162.6,36.175C222.508,36.175,271.079,84.746,271.079,144.654z"/>
<path style="fill:#A3E261;" d="M457.87,144.654c0,19.457-5.12,37.705-14.095,53.493c-18.646,32.841-53.934,54.986-94.384,54.986  c-59.922,0-108.479-48.572-108.479-108.479S289.47,36.175,349.391,36.175C409.298,36.175,457.87,84.746,457.87,144.654z"/>
<path style="fill:#3678C6;" d="M85.042,144.654c0-54.656,40.425-99.857,93.017-107.364c-5.052-0.721-10.208-1.115-15.459-1.115  c-59.922,0-108.479,48.572-108.479,108.479S102.679,253.133,162.6,253.133c5.268,0,10.447-0.383,15.514-1.108  C125.495,244.541,85.042,199.328,85.042,144.654z"/>
<path style="fill:#90BC61;" d="M271.833,144.654c0-54.656,40.425-99.857,93.017-107.364c-5.052-0.721-10.208-1.115-15.459-1.115  c-59.922,0-108.479,48.572-108.479,108.479s48.557,108.479,108.479,108.479c5.265,0,10.441-0.384,15.507-1.109  C312.283,244.536,271.833,199.327,271.833,144.654z"/>
<g>
	<path style="fill:#EA587F;" d="M470.398,185.694l-4.509,27.735l-38.303,235.334c-2.546,15.603-16.015,27.066-31.831,27.066H116.23   c-15.816,0-29.285-11.464-31.831-27.066L46.097,213.429l-4.509-27.735H470.398z"/>
	<path style="fill:#EA587F;" d="M501.333,170.76c0,8.249-6.685,14.934-14.934,14.934H25.601c-4.125,0-7.851-1.678-10.553-4.381   s-4.381-6.429-4.381-10.553c0-8.249,6.685-14.934,14.934-14.934h460.797c4.125,0,7.851,1.678,10.553,4.381   C499.654,162.909,501.333,166.635,501.333,170.76z"/>
</g>
<g>
	<path style="fill:#CE3E6B;" d="M115.32,448.763L77.018,213.429l-4.509-27.735H41.588l4.509,27.735l38.303,235.334   c2.546,15.603,16.015,27.066,31.831,27.066h30.921C131.335,475.831,117.866,464.367,115.32,448.763z"/>
	<path style="fill:#CE3E6B;" d="M41.588,170.76c0-8.249,6.685-14.934,14.934-14.934H25.601c-8.249,0-14.934,6.685-14.934,14.934   c0,4.125,1.678,7.851,4.381,10.553s6.429,4.381,10.553,4.381h30.921c-4.125,0-7.851-1.678-10.553-4.381   C43.266,178.611,41.588,174.886,41.588,170.76z"/>
	<polygon style="fill:#CE3E6B;" points="470.398,185.694 465.889,213.429 46.097,213.429 41.588,185.694  "/>
</g>
<rect x="152.229" y="253.127" style="fill:#FFFFFF;" width="207.528" height="135.232"/>
<path style="fill:#CE3E6B;" d="M255.986,448.763h-1.408H84.399c2.546,15.603,16.015,27.066,31.831,27.066h138.347h1.408h139.77  c15.816,0,29.285-11.464,31.831-27.066H255.986z"/>
<path d="M141.547,253.131v135.227c0,5.891,4.776,10.667,10.667,10.667h49.744c5.891,0,10.667-4.776,10.667-10.667  s-4.776-10.667-10.667-10.667h-39.076V263.799H349.09v113.892H234.67c-5.891,0-10.667,4.776-10.667,10.667  s4.776,10.667,10.667,10.667h125.087c5.891,0,10.667-4.776,10.667-10.667V253.131c0-5.891-4.776-10.667-10.667-10.667H152.215  C146.322,242.464,141.547,247.24,141.547,253.131z"/>
<path d="M504.495,152.664c-4.84-4.84-11.266-7.505-18.096-7.505h-17.873c0-0.169,0.013-0.341,0.013-0.511  c0-65.698-53.449-119.146-119.146-119.146c-36.478,0-70.98,16.994-93.4,45.195c-22.411-28.204-56.909-45.195-93.391-45.195  c-32.589,0-63.014,12.905-85.668,36.337c-4.095,4.236-3.981,10.989,0.255,15.083c4.236,4.093,10.989,3.981,15.084-0.255  c18.599-19.237,43.576-29.831,70.33-29.831c32.409,0,62.911,16.335,80.997,42.993c-8.744,16.854-13.353,35.666-13.353,54.818  c0,0.168,0.013,0.341,0.013,0.511H64.804c-0.001-0.168-0.013-0.343-0.013-0.511c0-15.074,3.332-29.523,9.906-42.951  c2.591-5.291,0.401-11.68-4.89-14.271c-5.292-2.593-11.681-0.403-14.271,4.89c-8.016,16.372-12.08,33.979-12.08,52.331  c0,0.168,0.013,0.341,0.013,0.511H25.601C11.485,145.157,0,156.642,0,170.759c0,6.83,2.665,13.256,7.504,18.096  c4.839,4.84,11.266,7.505,18.097,7.505h6.915l41.355,254.12c3.405,20.871,21.219,36.018,42.359,36.018h279.525  c21.14,0,38.954-15.146,42.36-36.021l41.353-254.115h6.929c14.116,0,25.601-11.485,25.601-25.601  C512,163.932,509.335,157.504,504.495,152.664z M251.581,144.648c0-17.561,4.698-34.767,13.589-49.765  c17.547-29.635,49.819-48.047,84.223-48.047c53.934,0,97.812,43.878,97.812,97.812c0,0.168-0.013,0.341-0.013,0.511H251.595  C251.594,144.991,251.581,144.817,251.581,144.648z M486.399,175.027H365.523c-5.891,0-10.667,4.776-10.667,10.667  s4.776,10.667,10.667,10.667h92.332l-40.796,250.683c-1.712,10.498-10.672,18.117-21.303,18.117H116.23  c-10.63,0-19.589-7.619-21.303-18.113L54.131,196.361H332.81c5.891,0,10.667-4.776,10.667-10.667s-4.776-10.667-10.667-10.667  H25.601c-1.526,0-2.542-0.787-3.011-1.256c-0.469-0.469-1.256-1.483-1.256-3.011c0-2.352,1.914-4.267,4.267-4.267h460.797  c1.526,0,2.542,0.787,3.011,1.256c0.469,0.469,1.256,1.483,1.256,3.011C490.665,173.114,488.751,175.027,486.399,175.027z"/>
<g>
</g>
<g>
</g>
<g>
</g>
<g>
</g>
<g>
</g>
<g>
</g>
<g>
</g>
<g>
</g>
<g>
</g>
<g>
</g>
<g>
</g>
<g>
</g>
<g>
</g>
<g>
</g>
<g>
</g>
</svg>
