<?xml version="1.0" encoding="iso-8859-1"?>
<!-- Generator: Adobe Illustrator 19.0.0, SVG Export Plug-In . SVG Version: 6.00 Build 0)  -->
<svg xmlns="http://www.w3.org/2000/svg" xmlns:xlink="http://www.w3.org/1999/xlink" version="1.1" id="Layer_1" x="0px" y="0px" viewBox="0 0 512 512" style="enable-background:new 0 0 512 512;" xml:space="preserve">
<path style="fill:#A3E261;" d="M329.491,8.562H182.506c-30.379,0-55.004,24.625-55.004,55.004v297.178  c0,7.375,2.991,14.065,7.832,18.894c4.829,4.84,11.508,7.832,18.883,7.832H357.78c14.75,0,26.714-11.964,26.714-26.726V63.566  C384.495,33.187,359.87,8.562,329.491,8.562z"/>
<path style="fill:#90BC61;" d="M156.424,360.744V63.566c0-30.379,24.625-55.004,55.004-55.004h-28.921  c-30.379,0-55.004,24.625-55.004,55.004v297.178c0,7.375,2.991,14.065,7.832,18.894c4.829,4.84,11.508,7.832,18.883,7.832h28.921  c-7.375,0-14.053-2.991-18.883-7.832C159.415,374.809,156.424,368.119,156.424,360.744z"/>
<path style="fill:#F9DB87;" d="M233.61,387.464v90.416c0,14.12-11.446,25.558-25.558,25.558c-14.12,0-25.558-11.437-25.558-25.558  v-90.416H233.61z"/>
<rect x="182.5" y="387.458" style="fill:#E5B94C;" width="51.114" height="20.009"/>
<path style="fill:#F9DB87;" d="M329.502,387.464v90.416c0,14.12-11.446,25.558-25.558,25.558c-14.12,0-25.558-11.437-25.558-25.558  v-90.416H329.502z"/>
<g>
	<path style="fill:#E5B94C;" d="M198.858,477.88v-90.416h-16.363v90.416c0,14.12,11.438,25.558,25.558,25.558   c2.862,0,5.611-0.477,8.18-1.345C206.131,498.681,198.858,489.137,198.858,477.88z"/>
	<path style="fill:#E5B94C;" d="M294.751,477.88v-90.416h-16.363v90.416c0,14.12,11.437,25.558,25.558,25.558   c2.862,0,5.611-0.477,8.18-1.345C302.023,498.681,294.751,489.137,294.751,477.88z"/>
	<rect x="278.386" y="387.458" style="fill:#E5B94C;" width="51.114" height="20.009"/>
</g>
<path style="fill:#FCEDCA;" d="M384.495,360.744c0,14.761-11.964,26.726-26.714,26.726H154.216c-7.375,0-14.053-2.991-18.883-7.832  c-4.841-4.829-7.832-11.519-7.832-18.894L384.495,360.744L384.495,360.744z"/>
<path style="fill:#DDC89F;" d="M156.424,360.744h-28.921c0,7.375,2.991,14.065,7.832,18.894c4.829,4.84,11.508,7.832,18.883,7.832  h28.921c-7.375,0-14.053-2.991-18.883-7.832C159.415,374.809,156.424,368.119,156.424,360.744z"/>
<path d="M329.492,0H182.507c-35.05,0-63.566,28.516-63.566,63.566v10.081c0,4.729,3.834,8.562,8.562,8.562  c4.729,0,8.562-3.834,8.562-8.562V63.566c0-25.608,20.834-46.442,46.442-46.442h146.985c25.608,0,46.442,20.834,46.442,46.442  v288.616h-50.291c-4.729,0-8.562,3.834-8.562,8.562s3.834,8.562,8.562,8.562h48.145c-3.063,5.71-9.089,9.601-16.006,9.601H154.217  c-4.847,0-9.4-1.888-12.835-5.33c-1.282-1.279-2.349-2.717-3.183-4.271h161.185c4.729,0,8.562-3.834,8.562-8.562  s-3.834-8.562-8.562-8.562H136.065V100.474c0-4.729-3.834-8.562-8.562-8.562c-4.729,0-8.562,3.834-8.562,8.562v260.269  c0,9.437,3.675,18.299,10.332,24.942c6.657,6.672,15.515,10.347,24.945,10.347h70.831v81.848c0,9.371-7.624,16.995-16.995,16.995  c-9.372,0-16.995-7.624-16.995-16.995v-64.699c0-4.729-3.834-8.562-8.562-8.562s-8.562,3.834-8.562,8.562v64.699  c0,18.813,15.306,34.12,34.12,34.12s34.12-15.306,34.12-34.12v-81.848h27.653v81.848c0,18.813,15.306,34.12,34.12,34.12  c18.814,0,34.12-15.306,34.12-34.12v-81.848h19.717c19.451,0,35.276-15.83,35.276-35.288V63.566C393.057,28.516,364.541,0,329.492,0  z M320.94,477.88c0,9.371-7.624,16.995-16.995,16.995s-16.995-7.624-16.995-16.995v-81.848h33.99v81.848H320.94z"/>
<g>
</g>
<g>
</g>
<g>
</g>
<g>
</g>
<g>
</g>
<g>
</g>
<g>
</g>
<g>
</g>
<g>
</g>
<g>
</g>
<g>
</g>
<g>
</g>
<g>
</g>
<g>
</g>
<g>
</g>
</svg>
