<?xml version="1.0" encoding="iso-8859-1"?>
<!-- Generator: Adobe Illustrator 19.0.0, SVG Export Plug-In . SVG Version: 6.00 Build 0)  -->
<svg xmlns="http://www.w3.org/2000/svg" xmlns:xlink="http://www.w3.org/1999/xlink" version="1.1" id="Layer_1" x="0px" y="0px" viewBox="0 0 512 512" style="enable-background:new 0 0 512 512;" xml:space="preserve">
<path style="fill:#BC6491;" d="M317.478,73.839v298.072c0,13.795-11.185,24.98-24.98,24.98H219.5  c-13.795,0-24.98-11.185-24.98-24.98V73.839c0-2.966,1.208-5.652,3.149-7.604c1.952-1.941,4.638-3.149,7.604-3.149  c5.059,0,9.438-3.516,10.516-8.456l8.316-38.085c1.079-4.94,5.458-8.456,10.505-8.456h42.776c5.059,0,9.427,3.516,10.505,8.456  l8.327,38.085c0.539,2.47,1.898,4.584,3.764,6.083c1.855,1.499,4.206,2.373,6.741,2.373  C312.657,63.086,317.478,67.907,317.478,73.839z"/>
<path style="fill:#92496A;" d="M208.273,371.911V73.839c0-2.966,1.208-5.652,3.149-7.604c1.952-1.941,4.638-3.149,7.604-3.149  c5.059,0,9.438-3.516,10.516-8.456l8.316-38.085c1.079-4.94,5.458-8.456,10.505-8.456h-13.752c-5.048,0-9.427,3.516-10.505,8.456  L215.79,54.63c-1.079,4.94-5.458,8.456-10.516,8.456c-2.966,0-5.652,1.208-7.604,3.149c-1.941,1.952-3.149,4.638-3.149,7.604  v298.072c0,13.795,11.185,24.98,24.98,24.98h13.752C219.457,396.891,208.273,385.706,208.273,371.911z"/>
<path style="fill:#D676AB;" d="M277.032,113.24v225.279c0,11.616-9.416,21.032-21.032,21.032c-11.616,0-21.032-9.416-21.032-21.032  V113.24c0-11.616,9.416-21.032,21.032-21.032c5.803,0,11.066,2.351,14.874,6.159C274.68,102.174,277.032,107.426,277.032,113.24z"/>
<path style="fill:#A85180;" d="M244.674,338.519V113.24c0-9.943,6.907-18.253,16.179-20.447c-1.562-0.37-3.181-0.586-4.854-0.586  c-11.616,0-21.032,9.416-21.032,21.032v225.279c0,11.616,9.416,21.032,21.032,21.032c1.674,0,3.293-0.216,4.854-0.586  C251.581,356.771,244.674,348.461,244.674,338.519z"/>
<path style="fill:#F9DB87;" d="M269.751,396.894v97.417c0,5.296-4.304,9.599-9.599,9.599h-8.305c-5.296,0-9.599-4.303-9.599-9.599  v-97.417H269.751z"/>
<g>
	<path style="fill:#E5B94C;" d="M254.924,494.311v-97.417h-12.676v97.417c0,5.296,4.304,9.599,9.599,9.599h8.305   c0.753,0,1.483-0.096,2.186-0.26C258.094,502.658,254.924,498.854,254.924,494.311z"/>
	<rect x="242.248" y="396.894" style="fill:#E5B94C;" width="27.503" height="26.963"/>
</g>
<path d="M306.725,54.997c-0.781,0-1.331-0.313-1.675-0.59c-0.332-0.266-0.761-0.743-0.928-1.505l-8.327-38.082  C293.921,6.233,286.18,0,277.388,0h-42.776c-8.791,0-16.533,6.233-18.408,14.82l-8.316,38.085c-0.265,1.212-1.364,2.092-2.613,2.092  c-5.013,0-9.74,1.954-13.34,5.535c-3.549,3.569-5.503,8.294-5.503,13.307v223.438c0,4.467,3.621,8.089,8.089,8.089  c4.469,0,8.089-3.622,8.089-8.089V73.839c0-0.957,0.499-1.601,0.765-1.868c0.298-0.297,0.943-0.795,1.899-0.795  c8.798,0,16.544-6.233,18.419-14.82l8.316-38.085c0.265-1.212,1.36-2.092,2.603-2.092h42.776c1.263,0,2.333,0.861,2.603,2.095  l8.327,38.081c0.916,4.192,3.259,7.979,6.583,10.649c3.327,2.69,7.527,4.172,11.827,4.172c1.468,0,2.664,1.195,2.664,2.664v298.072  c0,9.314-7.577,16.891-16.891,16.891h-72.998c-9.313,0-16.891-7.577-16.891-16.891v-49.828c0-4.467-3.621-8.089-8.089-8.089  c-4.469,0-8.089,3.622-8.089,8.089v49.827c0,18.234,14.835,33.069,33.069,33.069h14.658v89.331c0,9.754,7.934,17.689,17.688,17.689  h8.305c9.754,0,17.689-7.935,17.689-17.689v-72.61c0-4.467-3.621-8.089-8.089-8.089s-8.089,3.622-8.089,8.089v72.61  c0,0.833-0.677,1.51-1.51,1.51h-8.305c-0.832,0-1.509-0.677-1.509-1.51V404.98H292.5c18.234,0,33.069-14.835,33.069-33.069V73.839  C325.568,63.449,317.115,54.997,306.725,54.997z"/>
<path d="M277.032,172.701c4.469,0,8.089-3.622,8.089-8.089V113.24c0-7.781-3.029-15.096-8.527-20.593  c-5.5-5.5-12.813-8.528-20.594-8.528c-16.058,0-29.122,13.064-29.122,29.122v225.279c0,16.058,13.064,29.122,29.122,29.122  s29.122-13.064,29.122-29.122v-149.1c0-4.467-3.621-8.089-8.089-8.089s-8.089,3.622-8.089,8.089v149.1  c0,7.137-5.806,12.943-12.943,12.943c-7.137,0-12.943-5.806-12.943-12.943V113.24c0-7.137,5.806-12.943,12.943-12.943  c3.459,0,6.711,1.346,9.154,3.79c2.444,2.443,3.789,5.694,3.789,9.153v51.372C268.942,169.079,272.564,172.701,277.032,172.701z"/>
<g>
</g>
<g>
</g>
<g>
</g>
<g>
</g>
<g>
</g>
<g>
</g>
<g>
</g>
<g>
</g>
<g>
</g>
<g>
</g>
<g>
</g>
<g>
</g>
<g>
</g>
<g>
</g>
<g>
</g>
</svg>
