<?xml version="1.0" encoding="iso-8859-1"?>
<!-- Generator: Adobe Illustrator 19.0.0, SVG Export Plug-In . SVG Version: 6.00 Build 0)  -->
<svg xmlns="http://www.w3.org/2000/svg" xmlns:xlink="http://www.w3.org/1999/xlink" version="1.1" id="Layer_1" x="0px" y="0px" viewBox="0 0 512 512" style="enable-background:new 0 0 512 512;" xml:space="preserve">
<path style="fill:#EA587F;" d="M372.441,125.009v202.686c0,13.369-10.834,24.214-24.203,24.214H163.773  c-13.369,0-24.214-10.846-24.214-24.214V125.009c0-64.308,52.138-116.447,116.447-116.447S372.441,60.701,372.441,125.009z"/>
<path style="fill:#F9DB87;" d="M289.398,351.909v118.136c0,18.449-14.955,33.393-33.393,33.393  c-18.449,0-33.393-14.944-33.393-33.393V351.909H289.398z"/>
<path style="fill:#CE3E6B;" d="M162.392,327.695V125.009c0-60.455,46.08-110.151,105.03-115.888  c-3.756-0.365-7.563-0.558-11.416-0.558c-64.308,0-116.447,52.138-116.447,116.447v202.686c0,13.369,10.846,24.214,24.214,24.214  h22.833C173.237,351.909,162.392,341.063,162.392,327.695z"/>
<g>
	<path style="fill:#E5B94C;" d="M245.446,470.045V351.909h-22.833v118.136c0,18.449,14.944,33.393,33.393,33.393   c4.008,0,7.852-0.708,11.414-2.004C254.598,496.772,245.446,484.482,245.446,470.045z"/>
	<rect x="222.619" y="351.909" style="fill:#E5B94C;" width="66.786" height="26.143"/>
</g>
<path d="M343.181,35.419c-3.388-3.298-8.809-3.225-12.108,0.163c-3.298,3.388-3.225,8.809,0.163,12.107  c21.049,20.49,32.643,47.949,32.643,77.318v202.686c0,8.631-7.016,15.652-15.64,15.652H163.773c-8.631,0-15.652-7.021-15.652-15.652  V125.009c0-59.487,48.397-107.884,107.884-107.884c19.604,0,38.797,5.31,55.502,15.355c4.054,2.437,9.315,1.127,11.75-2.926  c2.437-4.053,1.127-9.313-2.925-11.75C300.963,6.157,278.72,0,256.006,0c-68.93,0-125.009,56.079-125.009,125.009v202.686  c0,18.073,14.703,32.776,32.776,32.776h50.278v19.703c0,4.729,3.834,8.562,8.562,8.562c4.729,0,8.562-3.834,8.562-8.562v-19.703  h49.661v109.574c0,13.692-11.139,24.831-24.831,24.831c-13.692,0-24.831-11.139-24.831-24.831V404.72  c0-4.729-3.834-8.562-8.562-8.562c-4.729,0-8.562,3.834-8.562,8.562v65.325c0,23.134,18.821,41.955,41.955,41.955  s41.955-18.821,41.955-41.955V360.471h50.278c18.066,0,32.765-14.703,32.765-32.776V125.009  C381.003,90.977,367.571,59.161,343.181,35.419z"/>
<g>
</g>
<g>
</g>
<g>
</g>
<g>
</g>
<g>
</g>
<g>
</g>
<g>
</g>
<g>
</g>
<g>
</g>
<g>
</g>
<g>
</g>
<g>
</g>
<g>
</g>
<g>
</g>
<g>
</g>
</svg>
