<?xml version="1.0" encoding="iso-8859-1"?>
<!-- Generator: Adobe Illustrator 19.0.0, SVG Export Plug-In . SVG Version: 6.00 Build 0)  -->
<svg xmlns="http://www.w3.org/2000/svg" xmlns:xlink="http://www.w3.org/1999/xlink" version="1.1" id="Layer_1" x="0px" y="0px" viewBox="0 0 512 512" style="enable-background:new 0 0 512 512;" xml:space="preserve">
<path style="fill:#FFD41D;" d="M346.544,103.376c0,25.723-10.731,48.954-27.967,65.43c-16.263,15.55-38.294,25.106-62.581,25.106  c-49.999,0-90.536-40.538-90.536-90.536c0-50.01,40.538-90.548,90.536-90.548C306.006,12.827,346.544,53.365,346.544,103.376z"/>
<path style="fill:#FFA91F;" d="M198.697,99.452c0-40.547,26.65-74.863,63.383-86.4c-2.013-0.134-4.037-0.227-6.084-0.227  c-49.999,0-90.536,40.538-90.536,90.548c0,49.999,40.538,90.536,90.536,90.536c9.455,0,18.561-1.465,27.125-4.151  C235.975,186.614,198.697,147.395,198.697,99.452z"/>
<path style="fill:#E85858;" d="M268.59,170.485c0,13.853-3.11,26.97-8.677,38.71c-14.506,30.638-45.713,51.827-81.859,51.827  c-50.01,0-90.536-40.538-90.536-90.536s40.526-90.536,90.536-90.536C228.053,79.949,268.59,120.487,268.59,170.485z"/>
<path style="fill:#B5600B;" d="M424.486,170.485c0,16.239-4.273,31.469-11.764,44.645c-15.562,27.409-45.013,45.891-78.773,45.891  c-50.01,0-90.536-40.538-90.536-90.536s40.526-90.536,90.536-90.536C383.948,79.949,424.486,120.487,424.486,170.485z"/>
<path style="fill:#CE3E3E;" d="M120.755,170.485c0-44.32,31.851-81.18,73.916-88.987c-5.389-1.001-10.937-1.549-16.618-1.549  c-50.01,0-90.536,40.538-90.536,90.536s40.526,90.536,90.536,90.536c5.699,0,11.276-0.529,16.683-1.537  C152.639,251.703,120.755,214.828,120.755,170.485z"/>
<path style="fill:#914D09;" d="M276.651,170.485c0-44.32,31.851-81.18,73.917-88.987c-5.389-1.001-10.937-1.549-16.618-1.549  c-50.01,0-90.536,40.538-90.536,90.536s40.526,90.536,90.536,90.536c5.691,0,11.256-0.537,16.656-1.542  C308.522,251.688,276.651,214.819,276.651,170.485z"/>
<polygon style="fill:#CAF9F5;" points="293.875,294.295 284.081,378.587 273.256,471.676 238.748,471.676 227.922,378.587   218.117,294.295 "/>
<polygon style="fill:#98D8D0;" points="235.329,294.295 218.117,294.295 227.922,378.587 238.748,471.676 255.96,471.676   245.134,378.587 "/>
<path style="fill:#CAF9F5;" d="M374.107,501.946v1.151H137.896v-1.151c0-16.714,13.544-30.27,30.27-30.27h175.672  C360.551,471.676,374.107,485.232,374.107,501.946z"/>
<path style="fill:#98D8D0;" d="M293.875,294.295l-9.793,84.292c-9.152,1.436-18.53,2.184-28.086,2.184s-18.933-0.748-28.074-2.184  l-9.805-84.293L293.875,294.295L293.875,294.295z"/>
<path style="fill:#CAF9F5;" d="M436.155,172.788v9.722c0,99.499-80.66,180.159-180.159,180.159  c-50.248,0-95.7-20.572-128.368-53.762c-32.015-32.525-51.779-77.146-51.779-126.397v-9.722L436.155,172.788L436.155,172.788z"/>
<g>
	<path style="fill:#98D8D0;" d="M201.403,471.676h-33.237c-16.726,0-30.27,13.556-30.27,30.27v1.151h33.237v-1.151   C171.134,485.232,184.678,471.676,201.403,471.676z"/>
	<path style="fill:#98D8D0;" d="M160.866,308.907c-32.015-32.525-51.779-77.146-51.779-126.397v-9.722H75.849v9.722   c0,49.251,19.764,93.872,51.779,126.397c32.668,33.19,78.12,53.762,128.368,53.762c5.605,0,11.148-0.269,16.622-0.77   C229.012,357.91,189.89,338.396,160.866,308.907z"/>
</g>
<path d="M436.155,163.885h-3.012c-3.017-45.779-37.137-83.171-81.382-91.211C339.903,30.216,300.598,0,255.993,0  c-35.977,0-69.248,19.526-86.828,50.958c-2.399,4.291-0.867,9.716,3.425,12.116c4.29,2.401,9.716,0.868,12.116-3.423  c14.436-25.811,41.751-41.845,71.287-41.845c34.343,0,64.855,21.811,76.548,53.263c-29.923,0.43-58.124,14.522-76.546,37.697  c-18.706-23.539-47.497-37.721-77.944-37.721c-3.851,0-7.767,0.228-11.644,0.677c-47.852,5.578-84.429,44.638-87.555,92.164h-3.006  c-4.918,0-8.903,3.986-8.903,8.903v9.722c0,49.936,19.298,97.043,54.337,132.642c26.673,27.099,60.024,45.123,96.406,52.56  l11.057,95.06h-4.792c-4.918,0-8.903,3.986-8.903,8.903c0,4.917,3.985,8.903,8.903,8.903h119.883  c9.049,0,16.803,5.655,19.912,13.615H148.254c3.109-7.962,10.863-13.615,19.912-13.615h28.487c4.918,0,8.903-3.986,8.903-8.903  c0-4.917-3.985-8.903-8.903-8.903h-28.487c-21.6,0-39.173,17.573-39.173,39.173v1.151c0,4.917,3.985,8.903,8.903,8.903h236.211  c4.918,0,8.903-3.986,8.903-8.903v-1.151c0-21.6-17.573-39.173-39.173-39.173h-60.586l11.063-95.12  c31.78-6.57,61.534-21.253,86.255-42.923c3.697-3.241,4.067-8.866,0.825-12.563c-3.242-3.696-8.866-4.067-12.564-0.826  c-31.21,27.359-71.282,42.426-112.836,42.426c-46.251,0-89.587-18.149-122.024-51.104c-31.741-32.247-49.221-74.918-49.221-120.152  v-0.819h342.5v0.819c0,40.533-14.418,79.852-40.595,110.714c-3.181,3.75-2.72,9.368,1.03,12.548  c3.751,3.181,9.369,2.718,12.548-1.03c28.904-34.075,44.822-77.485,44.822-122.232v-9.722  C445.057,167.872,441.071,163.885,436.155,163.885z M276.061,370.498l-10.734,92.274h-18.652l-10.732-92.252  c6.615,0.692,13.306,1.052,20.054,1.052C262.729,371.572,269.424,371.204,276.061,370.498z M333.947,88.851  c42.79,0,77.969,33.099,81.343,75.035h-162.7c0.996-12.342,4.762-24.304,11.066-34.935  C278.298,104.216,305.234,88.851,333.947,88.851z M168.465,89.409c3.192-0.37,6.418-0.558,9.587-0.558  c27.047,0,52.504,13.633,67.6,35.883c-6.291,12.126-10.019,25.462-10.926,39.151H96.7C99.786,125.405,129.595,93.94,168.465,89.409z  "/>
<g>
</g>
<g>
</g>
<g>
</g>
<g>
</g>
<g>
</g>
<g>
</g>
<g>
</g>
<g>
</g>
<g>
</g>
<g>
</g>
<g>
</g>
<g>
</g>
<g>
</g>
<g>
</g>
<g>
</g>
</svg>
