<?xml version="1.0" encoding="iso-8859-1"?>
<!-- Generator: Adobe Illustrator 19.0.0, SVG Export Plug-In . SVG Version: 6.00 Build 0)  -->
<svg xmlns="http://www.w3.org/2000/svg" xmlns:xlink="http://www.w3.org/1999/xlink" version="1.1" id="Layer_1" x="0px" y="0px" viewBox="0 0 512 512" style="enable-background:new 0 0 512 512;" xml:space="preserve">
<path style="fill:#FCEDCA;" d="M430.58,9.061l-22.661,69.553l-8.673,26.599L274.595,487.788c-5.866,18.001-31.332,18.001-37.196,0  L112.746,105.213l-8.673-26.599L81.412,9.061C81.412,9.061,430.58,9.061,430.58,9.061z"/>
<path id="SVGCleanerId_0" style="fill:#DDC89F;" d="M153.753,105.213l-8.673-26.599L122.419,9.061H81.412l22.661,69.553  l8.673,26.599l124.651,382.574c5.866,18.001,31.332,18.001,37.196,0l1.905-5.848L153.753,105.213z"/>
<g>
	<path id="SVGCleanerId_0_1_" style="fill:#DDC89F;" d="M153.753,105.213l-8.673-26.599L122.419,9.061H81.412l22.661,69.553   l8.673,26.599l124.651,382.574c5.866,18.001,31.332,18.001,37.196,0l1.905-5.848L153.753,105.213z"/>
</g>
<path style="fill:#B5600B;" d="M407.919,78.614l-8.673,26.599L278.982,474.321c-7.249,22.248-38.723,22.248-45.972,0  L112.746,105.213l-8.673-26.599C104.073,78.614,407.919,78.614,407.919,78.614z"/>
<path style="fill:#914D09;" d="M274.017,474.321L153.753,105.213l-8.673-26.599h-41.007l8.673,26.599L233.01,474.321  c6.604,20.269,33.309,22.063,43.49,5.4C275.507,478.093,274.662,476.299,274.017,474.321z"/>
<path style="fill:#FFD41D;" d="M399.246,105.213l-9.301,28.532l-2.416,7.405l-9.289,28.532l-6.559,20.112L270.02,501.829  c-2.211,6.789-8.117,10.171-14.024,10.171s-11.814-3.382-14.024-10.171L155.12,235.26l-21.369-65.579l-11.705-35.936l-9.301-28.532  L399.246,105.213L399.246,105.213z"/>
<path style="fill:#EA587F;" d="M105.848,9.061c4.699,30.235,10.026,56.326,19.206,56.326s14.507-26.092,19.206-56.326"/>
<path style="fill:#CE3E6B;" d="M125.055,65.387c4.339,0,7.815-5.832,10.774-15.169L122.419,9.061h-16.571  C110.547,39.296,115.874,65.387,125.055,65.387z"/>
<g>
	<path style="fill:#EA587F;" d="M280.42,9.061c4.699,30.235,10.026,56.326,19.206,56.326s14.507-26.092,19.206-56.326"/>
	<path style="fill:#EA587F;" d="M367.718,9.061c4.699,30.235,10.014,56.326,19.206,56.326c9.192,0,14.507-26.092,19.206-56.326"/>
	<path style="fill:#EA587F;" d="M193.134,9.061c4.699,30.235,10.026,56.326,19.206,56.326c9.18,0,14.507-26.092,19.206-56.326"/>
</g>
<polygon style="fill:#FFA91F;" points="389.945,133.745 378.24,169.681 133.752,169.681 122.047,133.745 "/>
<path style="fill:#EA587F;" d="M371.681,189.793L270.02,501.829c-2.211,6.789-8.117,10.171-14.024,10.171  s-11.814-3.382-14.024-10.171L155.12,235.26l100.875-21.175L371.681,189.793z"/>
<path style="fill:#FFA91F;" d="M196.128,235.26l-21.369-65.579l-11.705-35.936l-9.301-28.532h-41.007l9.301,28.532l11.705,35.936  l21.369,65.579l86.851,266.569c2.211,6.789,8.117,10.171,14.024,10.171s11.814-3.382,14.024-10.171l6.479-19.888L196.128,235.26z"/>
<path style="fill:#CE3E6B;" d="M155.12,235.26l86.851,266.569c2.211,6.789,8.117,10.171,14.024,10.171  c5.907,0,11.814-3.382,14.024-10.171l6.479-19.888l-82.997-254.738L155.12,235.26z"/>
<path style="fill:#FFD41D;" d="M408.257,123.175c0,4.965-2.005,9.458-5.267,12.708c-3.249,3.249-7.731,5.267-12.695,5.267H121.697  c-9.917,0-17.962-8.045-17.962-17.974c0-4.965,2.005-9.446,5.267-12.695c3.249-3.261,7.731-5.267,12.695-5.267h268.598  C400.212,105.213,408.257,113.258,408.257,123.175z"/>
<path style="fill:#FFA91F;" d="M144.742,123.175c0-4.965,2.005-9.446,5.267-12.695c3.249-3.261,7.731-5.267,12.695-5.267h-41.007  c-4.965,0-9.446,2.005-12.695,5.267c-3.261,3.249-5.267,7.731-5.267,12.695c0,9.929,8.045,17.974,17.962,17.974h41.007  C152.787,141.149,144.742,133.104,144.742,123.175z"/>
<path d="M416.595,81.225l22.602-69.358c0.899-2.759,0.423-5.781-1.283-8.128C436.211,1.389,433.485,0,430.585,0H81.417  c-2.901,0-5.627,1.389-7.331,3.737c-1.706,2.348-2.182,5.371-1.283,8.128l22.615,69.416c0.007,0.023,0.016,0.046,0.023,0.07  l0.023,0.07l7.33,22.471c-0.06,0.059-0.127,0.11-0.186,0.169c-5.114,5.096-7.931,11.884-7.931,19.113  c0,13.577,10.057,24.845,23.11,26.746l51.809,159.011c1.247,3.826,4.796,6.256,8.611,6.256c0.93,0,1.876-0.145,2.808-0.448  c4.757-1.55,7.358-6.663,5.808-11.42l-19.962-61.268l191.37-40.179l-92.254,283.114c-2.188,6.719-8.186,7.243-9.973,7.243  c-0.001,0-0.002,0-0.004,0c-1.793,0-7.795-0.524-9.987-7.245l-50.318-154.438c-1.551-4.758-6.665-7.358-11.42-5.808  c-4.757,1.55-7.358,6.663-5.808,11.42l50.318,154.441c3.914,11.999,14.594,19.749,27.214,19.749c0.002,0,0.006,0,0.008,0  c12.617-0.004,23.293-7.757,27.197-19.751l111.021-340.705c5.718-0.831,11.006-3.437,15.16-7.592  c5.116-5.096,7.933-11.889,7.933-19.125c0-7.542-3.109-14.37-8.11-19.276l7.316-22.45C416.547,81.374,416.574,81.299,416.595,81.225  z M401.343,69.553h-15.681c5.317-5.507,7.912-14.227,9.155-18.408c2.806-9.427,5.073-21.491,6.966-33.026h16.32L401.343,69.553z   M238.348,51.147c2.811-9.44,5.078-21.5,6.97-33.028h21.332c1.89,11.527,4.159,23.586,6.97,33.028  c1.244,4.179,3.84,12.9,9.156,18.407H229.19C234.508,64.046,237.104,55.326,238.348,51.147z M218.38,53.528  c-2.179-4.808-5.048-14.958-8.551-35.408h17.101C223.428,38.568,220.56,48.72,218.38,53.528z M285.036,18.119h17.102  c-3.503,20.45-6.372,30.601-8.55,35.408C291.408,48.72,288.539,38.57,285.036,18.119z M313.554,51.147  c2.811-9.442,5.079-21.501,6.97-33.028h27.384c1.893,11.536,4.16,23.6,6.966,33.026c1.243,4.179,3.838,12.901,9.155,18.408h-59.631  C309.714,64.046,312.31,55.326,313.554,51.147z M366.294,18.119h17.102c-3.505,20.465-6.373,30.614-8.551,35.417  C372.667,48.733,369.8,38.584,366.294,18.119z M145.685,18.119c-3.503,20.45-6.372,30.601-8.551,35.408  c-2.179-4.808-5.047-14.959-8.551-35.408H145.685z M110.198,18.119c1.892,11.527,4.16,23.588,6.97,33.028  c1.244,4.179,3.84,12.9,9.156,18.407H110.66L93.896,18.119H110.198z M396.583,129.477c-1.685,1.685-3.917,2.613-6.289,2.613h-84.77  c-5.005,0-9.06,4.056-9.06,9.06c0,5.003,4.055,9.06,9.06,9.06h69.539l-10.359,31.792l-203.491,42.724l-24.278-74.516h141.411  c5.005,0,9.06-4.056,9.06-9.06s-4.055-9.06-9.06-9.06h-156.65c-4.909,0-8.903-3.999-8.903-8.915c0-2.376,0.924-4.606,2.625-6.301  c1.672-1.678,3.902-2.602,6.278-2.602h268.598c4.908,0,8.903,3.993,8.903,8.903C399.197,125.56,398.275,127.793,396.583,129.477z   M390.295,96.153H121.697c-0.784,0-1.559,0.048-2.331,0.114l-2.801-8.595h44.008c5.003,0,9.06-4.056,9.06-9.06  s-4.056-9.06-9.06-9.06h-12.627c5.316-5.507,7.912-14.227,9.156-18.407c2.811-9.441,5.078-21.5,6.97-33.028h27.373  c1.892,11.527,4.159,23.586,6.97,33.028c1.244,4.179,3.84,12.9,9.156,18.407h-19.216c-5.003,0-9.06,4.056-9.06,9.06  s4.056,9.06,9.06,9.06h207.083l-2.799,8.59C391.865,96.195,391.085,96.153,390.295,96.153z"/>
<g>
</g>
<g>
</g>
<g>
</g>
<g>
</g>
<g>
</g>
<g>
</g>
<g>
</g>
<g>
</g>
<g>
</g>
<g>
</g>
<g>
</g>
<g>
</g>
<g>
</g>
<g>
</g>
<g>
</g>
</svg>
