<?xml version="1.0" encoding="iso-8859-1"?>
<!-- Generator: Adobe Illustrator 19.0.0, SVG Export Plug-In . SVG Version: 6.00 Build 0)  -->
<svg xmlns="http://www.w3.org/2000/svg" xmlns:xlink="http://www.w3.org/1999/xlink" version="1.1" id="Layer_1" x="0px" y="0px" viewBox="0 0 512 512" style="enable-background:new 0 0 512 512;" xml:space="preserve">
<path style="fill:#FFD41D;" d="M340.466,256.159l-0.276,0.87l-5.096,16.021l-5.137,16.191h-0.017l-66.196,208.317  c-1.195,3.78-4.462,5.665-7.738,5.665c-3.268,0-6.552-1.885-7.746-5.665l-31.432-98.904L176.91,273.048l-1.487-4.674l-3.609-11.347  l-0.146-0.463l-0.13-0.407h168.928V256.159z"/>
<g>
	<polygon style="fill:#FFA91F;" points="340.466,256.565 336.581,268.376 175.423,268.376 171.814,257.028 171.668,256.565  "/>
	<path style="fill:#FFA91F;" d="M237.204,398.655l-39.918-125.605l-1.487-4.674l-3.609-11.347l-0.146-0.463l-0.13-0.407h-20.376   l0.13,0.407l0.146,0.463l3.609,11.347l1.487,4.674l39.918,125.605l31.432,98.904c1.195,3.78,4.479,5.665,7.746,5.665   c3.275,0,6.543-1.885,7.738-5.665l2.445-7.697L237.204,398.655z"/>
</g>
<path style="fill:#EA587F;" d="M348.626,230.311c-1.689-1.7-3.775-3.003-6.1-3.775c-0.521-0.177-1.064-0.323-1.606-0.448  c-3.212-44.088-40.011-78.864-84.912-78.864c-44.912,0-81.711,34.776-84.923,78.864c-0.542,0.125-1.084,0.271-1.606,0.448  c-6.215,2.075-10.699,7.946-10.699,14.87c0,1.762,0.282,3.441,0.824,5.016c0.772,2.315,2.086,4.39,3.764,6.09  c2.503,2.503,5.829,4.14,9.531,4.515c0.511,0.052,1.043,0.083,1.575,0.083h0.021H337.51h0.021c0.532,0,1.064-0.031,1.575-0.083  c1.157-0.115,2.273-0.355,3.347-0.709c0.219-0.073,0.438-0.146,0.647-0.229c0.209-0.083,0.417-0.167,0.626-0.25  c0.209-0.094,0.417-0.188,0.615-0.282c0.146-0.073,0.282-0.136,0.428-0.209c0.177-0.094,0.344-0.188,0.521-0.292  c0.198-0.115,0.396-0.229,0.594-0.355c1.011-0.636,1.94-1.376,2.763-2.211c0.167-0.167,0.323-0.334,0.49-0.501  c0.49-0.553,0.949-1.137,1.366-1.741c0.125-0.177,0.24-0.344,0.344-0.521c0.501-0.803,0.938-1.658,1.283-2.555  c0.083-0.209,0.167-0.417,0.24-0.626c0.083-0.25,0.156-0.49,0.229-0.74c0.073-0.229,0.136-0.469,0.188-0.699  c0.052-0.198,0.094-0.396,0.136-0.594c0.021-0.146,0.052-0.282,0.073-0.428c0.031-0.188,0.063-0.365,0.083-0.553  c0.094-0.699,0.146-1.408,0.146-2.127C353.224,237.079,351.473,233.158,348.626,230.311z"/>
<g>
	<path style="fill:#CE3E6B;" d="M183.744,252.512c-1.679-1.7-2.993-3.775-3.764-6.09c-0.542-1.575-0.824-3.253-0.824-5.016   c0-6.924,4.484-12.795,10.699-14.87c0.521-0.177,1.064-0.323,1.606-0.448c2.965-40.701,34.562-73.442,74.734-78.237   c-3.342-0.399-6.737-0.628-10.187-0.628c-44.912,0-81.711,34.776-84.923,78.864c-0.542,0.125-1.084,0.271-1.606,0.448   c-6.215,2.075-10.699,7.946-10.699,14.87c0,1.762,0.282,3.441,0.824,5.016c0.772,2.315,2.086,4.39,3.764,6.09   c2.503,2.503,5.829,4.14,9.531,4.515c0.511,0.052,1.043,0.083,1.575,0.083h0.021h20.355c-0.532,0-1.064-0.031-1.575-0.083   C189.573,256.652,186.246,255.015,183.744,252.512z"/>
	<path style="fill:#CE3E6B;" d="M332.849,195.645H179.156c1.366-2.836,2.868-5.589,4.536-8.238h144.621   C329.981,190.056,331.493,192.808,332.849,195.645z"/>
</g>
<path style="fill:#669FF2;" d="M348.626,160.608c-1.689-1.7-3.775-3.014-6.1-3.785c-0.25-0.083-0.511-0.167-0.772-0.229  c-0.271-0.083-0.553-0.146-0.834-0.209c0-0.002,0-0.003,0-0.005c-0.782-10.834-3.608-21.106-8.071-30.438  c-1.356-2.836-2.868-5.589-4.536-8.238c-15.016-24.119-41.794-40.178-72.305-40.178c-30.522,0-57.29,16.059-72.316,40.178  c-1.668,2.649-3.17,5.402-4.536,8.238c-4.463,9.333-7.279,19.604-8.071,30.438c0,0.002,0,0.003,0,0.005  c-0.542,0.115-1.084,0.261-1.606,0.438c-6.215,2.086-10.699,7.956-10.699,14.88c0,1.762,0.282,3.441,0.824,5.005  c0.772,2.325,2.086,4.39,3.764,6.09c2.503,2.513,5.829,4.15,9.531,4.526c0.511,0.052,1.043,0.083,1.575,0.083h163.057  c0.532,0,1.064-0.031,1.575-0.083c0.459-0.042,0.907-0.115,1.356-0.198c0.031,0,0.073-0.01,0.115-0.021  c0.302-0.063,0.594-0.125,0.897-0.209c0.334-0.083,0.657-0.177,0.98-0.282c0.219-0.073,0.438-0.156,0.647-0.229  c0.313-0.115,0.615-0.24,0.918-0.375c0.01-0.01,0.01-0.01,0.021-0.01c0.313-0.146,0.605-0.292,0.907-0.459  c0.375-0.198,0.751-0.417,1.105-0.657c0.209-0.125,0.396-0.261,0.594-0.396c0.188-0.136,0.365-0.271,0.542-0.407  c0.229-0.177,0.459-0.365,0.678-0.563c0.042-0.031,0.083-0.073,0.125-0.115c0.229-0.198,0.448-0.407,0.657-0.626  c1.502-1.502,2.701-3.306,3.483-5.308c0.083-0.188,0.156-0.386,0.219-0.584c0.292-0.834,0.511-1.689,0.657-2.576  c0.031-0.156,0.052-0.323,0.073-0.49c0.052-0.355,0.083-0.699,0.104-1.053c0.031-0.344,0.042-0.699,0.042-1.064  C353.224,167.365,351.473,163.444,348.626,160.608z"/>
<g>
	<path style="fill:#3678C6;" d="M332.849,125.941H179.156c1.366-2.836,2.868-5.589,4.536-8.238h144.621   C329.981,120.352,331.493,123.105,332.849,125.941z"/>
	<path style="fill:#3678C6;" d="M183.744,182.798c-1.679-1.7-2.993-3.764-3.764-6.09c-0.542-1.564-0.824-3.243-0.824-5.005   c0-6.924,4.484-12.795,10.699-14.88c0.521-0.177,1.064-0.323,1.606-0.438c0-0.002,0-0.003,0-0.005   c0.792-10.834,3.608-21.106,8.071-30.438c1.366-2.836,2.868-5.589,4.536-8.238c13.328-21.393,35.897-36.434,62.127-39.564   c-3.341-0.398-6.738-0.614-10.187-0.614c-30.522,0-57.29,16.059-72.316,40.178c-1.668,2.649-3.17,5.402-4.536,8.238   c-4.463,9.333-7.279,19.604-8.071,30.438c0,0.002,0,0.003,0,0.005c-0.542,0.115-1.084,0.261-1.606,0.438   c-6.215,2.086-10.699,7.956-10.699,14.88c0,1.762,0.282,3.441,0.824,5.005c0.772,2.325,2.086,4.39,3.764,6.09   c2.503,2.513,5.829,4.15,9.531,4.526c0.511,0.052,1.043,0.083,1.575,0.083h20.376c-0.532,0-1.064-0.031-1.575-0.083   C189.573,186.948,186.246,185.311,183.744,182.798z"/>
</g>
<path style="fill:#A3E261;" d="M348.626,90.904c-1.689-1.7-3.775-3.014-6.1-3.785c-0.25-0.083-0.511-0.167-0.772-0.229  c-0.271-0.083-0.553-0.146-0.834-0.209c-3.201-44.078-40-78.864-84.912-78.864c-44.922,0-81.722,34.787-84.923,78.864  c-0.542,0.115-1.084,0.261-1.606,0.438c-6.215,2.086-10.699,7.956-10.699,14.88c0,1.762,0.282,3.441,0.824,5.005  c0.772,2.325,2.086,4.39,3.764,6.09c2.503,2.513,5.829,4.15,9.531,4.526c0.511,0.052,1.043,0.083,1.575,0.083h0.021H337.51h0.021  c0.532,0,1.064-0.031,1.575-0.083c0.459-0.042,0.907-0.115,1.356-0.198c0.031,0,0.073-0.01,0.115-0.021  c0.302-0.063,0.594-0.125,0.897-0.209c0.334-0.083,0.657-0.177,0.98-0.282c0.219-0.073,0.438-0.156,0.647-0.229  c0.313-0.115,0.615-0.24,0.918-0.375c0.01-0.01,0.01-0.01,0.021-0.01c0.313-0.146,0.605-0.292,0.907-0.459  c0.375-0.198,0.751-0.417,1.105-0.657c0.209-0.125,0.396-0.261,0.594-0.396c0.188-0.136,0.365-0.271,0.542-0.407  c0.229-0.177,0.459-0.365,0.678-0.563c0.042-0.031,0.083-0.073,0.125-0.115c0.229-0.198,0.448-0.407,0.657-0.626  c1.502-1.502,2.701-3.306,3.483-5.308c0.083-0.188,0.156-0.386,0.219-0.584c0.292-0.834,0.511-1.689,0.657-2.576  c0.031-0.156,0.052-0.323,0.073-0.49c0.052-0.355,0.083-0.699,0.104-1.053c0.031-0.344,0.042-0.699,0.042-1.064  C353.224,97.661,351.473,93.74,348.626,90.904z"/>
<path style="fill:#90BC61;" d="M183.744,113.094c-1.679-1.7-2.993-3.764-3.764-6.09c-0.542-1.564-0.824-3.243-0.824-5.005  c0-6.924,4.484-12.795,10.699-14.88c0.521-0.177,1.064-0.323,1.606-0.438c2.955-40.692,34.553-73.442,74.734-78.237  c-3.342-0.399-6.737-0.628-10.187-0.628c-44.922,0-81.722,34.787-84.923,78.864c-0.542,0.115-1.084,0.261-1.606,0.438  c-6.215,2.086-10.699,7.956-10.699,14.88c0,1.762,0.282,3.441,0.824,5.005c0.772,2.325,2.086,4.39,3.764,6.09  c2.503,2.513,5.829,4.15,9.531,4.526c0.511,0.052,1.043,0.083,1.575,0.083h0.021h20.355c-0.532,0-1.064-0.031-1.575-0.083  C189.573,117.244,186.246,115.607,183.744,113.094z"/>
<path d="M361.043,171.931c0-6.208-2.417-12.052-6.829-16.481c-1.953-1.945-4.193-3.505-6.635-4.639  c-1.078-8.807-3.439-17.43-6.964-25.548c11.495-1.414,20.428-11.237,20.428-23.114c0-6.208-2.417-12.052-6.829-16.481  c-1.952-1.944-4.191-3.503-6.631-4.637C342.017,35.177,302.789,0,256.005,0c-14.535,0-28.448,3.286-41.351,9.764  c-3.86,1.939-5.417,6.639-3.48,10.499c1.938,3.86,6.64,5.417,10.499,3.48c10.706-5.376,22.257-8.102,34.332-8.102  c37.531,0,69.19,27.259,75.467,63.431H180.535c2.894-16.764,11.255-32.032,24.072-43.635c3.202-2.899,3.448-7.845,0.55-11.047  s-7.844-3.448-11.047-0.55c-16.606,15.031-27.021,35.171-29.682,57.178c-8.072,3.72-13.47,11.831-13.47,21.129  c0,6.224,2.421,12.073,6.817,16.468c3.722,3.722,8.484,6.009,13.627,6.635c-3.527,8.118-5.887,16.74-6.968,25.548  c-8.075,3.718-13.476,11.831-13.476,21.131c0,6.224,2.421,12.073,6.817,16.468c3.714,3.714,8.465,6,13.597,6.63  c-3.509,8.102-5.86,16.7-6.938,25.479c-8.076,3.718-13.477,11.831-13.477,21.132c0,6.224,2.421,12.073,6.817,16.468  c2.178,2.178,4.713,3.868,7.47,5.024l16.43,51.685c1.058,3.328,4.136,5.454,7.452,5.454c0.784,0,1.583-0.119,2.37-0.369  c4.117-1.309,6.393-5.706,5.085-9.822l-14.352-45.144h147.545l-7.125,22.43c-0.059,0.152-0.114,0.306-0.164,0.463l-66.199,208.329  c-0.032,0.103-0.064,0.159-0.057,0.159c0,0,0,0,0.001,0c-0.015,0.009-0.096,0.044-0.226,0.044c-0.132,0-0.226-0.048-0.216-0.032  c-0.009-0.011-0.041-0.066-0.076-0.18l-52.74-165.963c-1.308-4.117-5.705-6.391-9.822-5.085c-4.117,1.309-6.393,5.706-5.085,9.822  l52.741,165.954c2.104,6.656,8.214,11.127,15.202,11.127c7.093,0,13.057-4.368,15.192-11.117l66.048-207.852  c0.059-0.153,0.115-0.311,0.166-0.469l9.353-29.44c8.38-3.53,14.279-11.829,14.279-21.481c0-6.208-2.417-12.052-6.829-16.481  c-1.954-1.945-4.193-3.506-6.636-4.639c-1.075-8.778-3.425-17.376-6.933-25.478C352.126,193.613,361.043,183.798,361.043,171.931z   M166.599,102.149c0-3.594,2.46-6.642,5.914-7.435h166.919c1.411,0.313,2.702,0.997,3.726,2.016  c1.448,1.454,2.245,3.379,2.245,5.419c0,4.22-3.429,7.654-7.643,7.654H174.252c-2.046,0-3.971-0.798-5.419-2.245  C167.392,106.117,166.599,104.195,166.599,102.149z M323.363,195.227c3.968,7.32,6.717,15.28,8.135,23.489H180.513  c1.417-8.209,4.168-16.169,8.135-23.489H323.363z M174.252,249.294c-2.047,0-3.972-0.798-5.419-2.245  c-1.441-1.441-2.236-3.363-2.236-5.409c0-3.396,2.197-6.304,5.353-7.283h168.104c1.166,0.364,2.229,0.996,3.101,1.863  c1.448,1.454,2.245,3.379,2.245,5.419c0,4.22-3.429,7.654-7.643,7.654L174.252,249.294L174.252,249.294z M337.758,179.585H174.252  c-2.046,0-3.971-0.798-5.419-2.245c-1.441-1.441-2.236-3.363-2.236-5.409c0-3.409,2.213-6.323,5.386-7.293h113.218  c4.319,0,7.821-3.502,7.821-7.821s-3.502-7.821-7.821-7.821H180.514c1.422-8.239,4.187-16.22,8.177-23.552H323.32  c3.991,7.332,6.755,15.313,8.177,23.552h-22.311c-4.319,0-7.821,3.502-7.821,7.821s3.502,7.821,7.821,7.821h30.825  c1.182,0.362,2.262,0.996,3.144,1.874c1.448,1.454,2.245,3.379,2.245,5.419C345.402,176.151,341.973,179.585,337.758,179.585z"/>
<g>
</g>
<g>
</g>
<g>
</g>
<g>
</g>
<g>
</g>
<g>
</g>
<g>
</g>
<g>
</g>
<g>
</g>
<g>
</g>
<g>
</g>
<g>
</g>
<g>
</g>
<g>
</g>
<g>
</g>
</svg>
