<?xml version="1.0" encoding="iso-8859-1"?>
<!-- Generator: Adobe Illustrator 19.0.0, SVG Export Plug-In . SVG Version: 6.00 Build 0)  -->
<svg xmlns="http://www.w3.org/2000/svg" xmlns:xlink="http://www.w3.org/1999/xlink" version="1.1" id="Layer_1" x="0px" y="0px" viewBox="0 0 512.001 512.001" style="enable-background:new 0 0 512.001 512.001;" xml:space="preserve">
<path style="fill:#FFD41D;" d="M369.822,133.715v198.126c0,13.068-10.59,23.669-23.658,23.669H165.848  c-13.068,0-23.669-10.602-23.669-23.669V133.715c0-62.862,50.966-113.827,113.827-113.827S369.822,70.853,369.822,133.715z"/>
<path style="fill:#FFA91F;" d="M164.219,331.841V133.715c0-59.143,45.117-107.751,102.807-113.294  c-3.627-0.348-7.302-0.533-11.02-0.533c-62.862,0-113.827,50.966-113.827,113.827v198.126c0,13.068,10.602,23.669,23.669,23.669  h22.04C174.82,355.51,164.219,344.909,164.219,331.841z"/>
<path style="fill:#F9DB87;" d="M288.647,355.51v115.479c0,18.034-14.619,32.642-32.642,32.642  c-18.034,0-32.642-14.608-32.642-32.642V355.51H288.647z"/>
<rect x="223.368" y="355.509" style="fill:#E5B94C;" width="65.283" height="25.555"/>
<g>
	<path style="fill:#B5600B;" d="M374.933,127.308v133.267c0,13.124-10.657,23.781-23.781,23.781c-6.584,0-12.532-2.667-16.829-6.975   c-4.308-4.296-6.964-10.244-6.964-16.806v-56.211c0-13.146-10.646-23.792-23.792-23.792c-6.573,0-12.521,2.667-16.817,6.964   c-4.308,4.319-6.964,10.267-6.964,16.829v80.014c0,13.135-10.635,23.781-23.781,23.792h-0.011c-6.562,0-12.51-2.678-16.817-6.975   c-4.308-4.308-6.975-10.256-6.975-16.817v-80.014c0-13.146-10.646-23.792-23.781-23.792c-6.573,0-12.521,2.667-16.817,6.964   c-4.319,4.319-6.975,10.267-6.975,16.829v22.732c0,13.124-10.646,23.781-23.781,23.781c-6.562,0-12.51-2.667-16.829-6.975   c-4.296-4.296-6.952-10.244-6.952-16.806v-99.788c0-65.685,53.253-118.938,118.938-118.938S374.933,61.623,374.933,127.308z"/>
	<path style="fill:#B5600B;" d="M356.363,277.381c-4.308-4.296-6.964-10.244-6.964-16.806v-56.211   c0-13.146-10.646-23.792-23.792-23.792c-3.98,0-7.724,0.991-11.017,2.716c7.587,3.975,12.77,11.912,12.77,21.076v56.211   c0,6.562,2.656,12.51,6.964,16.806c4.296,4.308,10.244,6.975,16.829,6.975c3.975,0,7.717-0.991,11.012-2.718   C360.017,280.511,358.057,279.081,356.363,277.381z"/>
</g>
<path style="fill:#914D09;" d="M166.06,243.903c-4.296-4.296-6.952-10.244-6.952-16.806v-99.788  c0-61.969,47.4-112.864,107.918-118.425c-3.629-0.334-7.304-0.513-11.02-0.513c-65.685,0-118.938,53.253-118.938,118.938v99.788  c0,6.562,2.656,12.51,6.952,16.806c4.319,4.308,10.267,6.975,16.829,6.975c3.981,0,7.726-0.991,11.022-2.722  C169.725,247.031,167.762,245.6,166.06,243.903z"/>
<path style="fill:#B5600B;" d="M261.217,301.195c-4.308-4.308-6.975-10.256-6.975-16.817v-80.014  c0-13.146-10.646-23.792-23.781-23.792c-3.982,0-7.726,0.991-11.021,2.717c7.582,3.975,12.762,11.912,12.762,21.075v80.014  c0,6.562,2.667,12.51,6.975,16.817c4.308,4.296,10.256,6.975,16.817,6.975h0.011c3.982-0.003,7.725-0.994,11.02-2.723  C264.879,304.321,262.917,302.891,261.217,301.195z"/>
<path style="fill:#E5B94C;" d="M245.683,470.989V355.51h-22.319v115.479c0,18.034,14.608,32.642,32.642,32.642  c3.918,0,7.676-0.692,11.157-1.958C254.63,497.114,245.683,485.101,245.683,470.989z"/>
<path d="M383.302,127.308C383.302,57.11,326.197,0,256.006,0c-70.198,0-127.308,57.11-127.308,127.308v99.788  c0,6.269,1.787,12.259,5.109,17.4v87.342c0,17.667,14.372,32.039,32.039,32.039h3.115c4.622,0,8.37-3.747,8.37-8.37  c0-4.622-3.747-8.37-8.37-8.37h-3.115c-8.437,0-15.3-6.863-15.3-15.3v-74.282c3.279,1.107,6.746,1.691,10.302,1.691  c17.728,0,32.151-14.423,32.151-32.151v-22.732c0-4.119,1.606-7.994,4.523-10.91c2.91-2.909,6.782-4.512,10.9-4.512  c8.498,0,15.411,6.919,15.411,15.422v80.014c0,8.583,3.348,16.657,9.434,22.743c6.089,6.073,14.16,9.419,22.746,9.419  c17.724-0.015,32.144-14.443,32.144-32.162V267.46c0-4.622-3.747-8.37-8.37-8.37s-8.37,3.747-8.37,8.37v16.919  c0,8.497-6.917,15.415-15.422,15.422c-4.104,0-7.977-1.609-10.9-4.523c-2.917-2.917-4.523-6.788-4.523-10.9v-80.014  c0-17.734-14.423-32.162-32.151-32.162c-8.589,0-16.663,3.343-22.735,9.415c-6.079,6.079-9.426,14.157-9.426,22.746v22.732  c0,8.498-6.913,15.411-15.411,15.411c-4.111,0-7.989-1.609-10.911-4.523c-2.903-2.903-4.501-6.769-4.501-10.888v-99.788  c0-60.968,49.601-110.569,110.569-110.569c60.961,0,110.557,49.601,110.557,110.569v133.266c0,8.498-6.913,15.411-15.411,15.411  c-4.126,0-7.998-1.604-10.918-4.531c-2.905-2.897-4.504-6.762-4.504-10.881v-56.211c0-17.734-14.428-32.162-32.162-32.162  c-8.589,0-16.665,3.343-22.744,9.422c-6.066,6.082-9.406,14.158-9.406,22.739v37.428c0,4.622,3.747,8.37,8.37,8.37  s8.37-3.747,8.37-8.37v-37.427c0-4.118,1.605-7.996,4.511-10.91c2.91-2.909,6.782-4.512,10.901-4.512  c8.504,0,15.422,6.919,15.422,15.422v56.211c0,8.598,3.347,16.671,9.407,22.716c6.069,6.084,14.149,9.434,22.754,9.434  c3.601,0,7.063-0.605,10.299-1.702v40.815c0,8.437-6.859,15.3-15.289,15.3H194.628c-4.622,0-8.37,3.747-8.37,8.37  c0,4.622,3.747,8.37,8.37,8.37h20.367V470.99c0,22.614,18.398,41.011,41.011,41.011s41.011-18.398,41.011-41.011v-27.767  c0-4.622-3.747-8.37-8.37-8.37c-4.622,0-8.37,3.747-8.37,8.37v27.767c0,13.384-10.888,24.272-24.272,24.272  s-24.272-10.888-24.272-24.272V363.881h48.544v54.233c0,4.622,3.747,8.37,8.37,8.37c4.622,0,8.37-3.747,8.37-8.37v-54.235h49.144  c17.66,0,32.028-14.372,32.028-32.039v-53.902c3.23-5.012,5.113-10.97,5.113-17.362V127.308H383.302z"/>
<g>
</g>
<g>
</g>
<g>
</g>
<g>
</g>
<g>
</g>
<g>
</g>
<g>
</g>
<g>
</g>
<g>
</g>
<g>
</g>
<g>
</g>
<g>
</g>
<g>
</g>
<g>
</g>
<g>
</g>
</svg>
