<?xml version="1.0" encoding="iso-8859-1"?>
<!-- Generator: Adobe Illustrator 19.0.0, SVG Export Plug-In . SVG Version: 6.00 Build 0)  -->
<svg xmlns="http://www.w3.org/2000/svg" xmlns:xlink="http://www.w3.org/1999/xlink" version="1.1" id="Layer_1" x="0px" y="0px" viewBox="0 0 512 512" style="enable-background:new 0 0 512 512;" xml:space="preserve">
<path style="fill:#E85858;" d="M148.686,25.472v461.043c0,9.257-7.505,16.763-16.749,16.763H74.395  c-9.257,0-16.747-7.505-16.747-16.763V25.472c0-9.243,7.491-16.747,16.747-16.747h57.542  C141.181,8.724,148.686,16.229,148.686,25.472z"/>
<path style="fill:#44B9B1;" d="M301.519,25.472v461.043c0,9.257-7.505,16.763-16.749,16.763h-57.542  c-9.257,0-16.747-7.505-16.747-16.763V25.472c0-9.243,7.491-16.747,16.747-16.747h57.542  C294.014,8.724,301.519,16.229,301.519,25.472z"/>
<path style="fill:#FFD41D;" d="M454.352,25.472v461.043c0,9.257-7.505,16.763-16.749,16.763h-57.542  c-9.257,0-16.747-7.505-16.747-16.763V25.472c0-9.243,7.491-16.747,16.747-16.747h57.542  C446.847,8.724,454.352,16.229,454.352,25.472z"/>
<path style="fill:#CE3E3E;" d="M85.564,486.514V25.472c0-9.244,7.491-16.749,16.749-16.749H74.397  c-9.257,0-16.749,7.505-16.749,16.749v461.041c0,9.257,7.491,16.761,16.749,16.761h27.916  C93.055,503.276,85.564,495.77,85.564,486.514z"/>
<path style="fill:#28A599;" d="M238.397,486.514V25.472c0-9.244,7.491-16.749,16.747-16.749h-27.916  c-9.257,0-16.747,7.505-16.747,16.749v461.041c0,9.257,7.491,16.761,16.747,16.761h27.916  C245.888,503.276,238.397,495.77,238.397,486.514z"/>
<path style="fill:#FFA91F;" d="M391.23,486.514V25.472c0-9.244,7.491-16.749,16.747-16.749h-27.916  c-9.257,0-16.747,7.505-16.747,16.749v461.041c0,9.257,7.491,16.761,16.747,16.761h27.916  C398.721,503.276,391.23,495.77,391.23,486.514z"/>
<path d="M131.939,512H74.395c-14.045,0-25.471-11.433-25.471-25.486V25.472C48.924,11.427,60.35,0,74.395,0h57.543  c14.045,0,25.471,11.427,25.471,25.472v58.691c0,4.818-3.905,8.724-8.724,8.724s-8.724-3.906-8.724-8.724V25.472  c0-4.425-3.6-8.025-8.024-8.025H74.395c-4.425,0-8.024,3.6-8.024,8.025v461.041c0,4.433,3.6,8.039,8.024,8.039h57.543  c4.425,0,8.024-3.606,8.024-8.039V110.916c0-4.818,3.905-8.724,8.724-8.724s8.724,3.906,8.724,8.724v375.598  C157.41,500.567,145.984,512,131.939,512z"/>
<path d="M284.771,512h-57.542c-14.045,0-25.471-11.433-25.471-25.486V25.472C201.757,11.427,213.183,0,227.229,0h57.542  c14.045,0,25.472,11.427,25.472,25.472v461.041C310.244,500.567,298.816,512,284.771,512z M227.229,17.448  c-4.425,0-8.024,3.6-8.024,8.025v461.041c0,4.433,3.6,8.039,8.024,8.039h57.542c4.426,0,8.025-3.606,8.025-8.039V25.472  c0-4.425-3.6-8.025-8.025-8.025H227.229z"/>
<path d="M437.605,512h-57.542c-14.045,0-25.472-11.433-25.472-25.486V378.059c0-4.818,3.905-8.724,8.724-8.724  s8.724,3.906,8.724,8.724v108.454c0,4.433,3.6,8.039,8.025,8.039h57.542c4.425,0,8.024-3.606,8.024-8.039V25.472  c0-4.425-3.6-8.025-8.024-8.025h-57.542c-4.426,0-8.025,3.6-8.025,8.025V352.47c0,4.818-3.905,8.724-8.724,8.724  s-8.724-3.906-8.724-8.724V25.472C354.59,11.427,366.017,0,380.062,0h57.542c14.045,0,25.471,11.427,25.471,25.472v461.041  C463.076,500.567,451.65,512,437.605,512z"/>
<g>
</g>
<g>
</g>
<g>
</g>
<g>
</g>
<g>
</g>
<g>
</g>
<g>
</g>
<g>
</g>
<g>
</g>
<g>
</g>
<g>
</g>
<g>
</g>
<g>
</g>
<g>
</g>
<g>
</g>
</svg>
