<?xml version="1.0" encoding="iso-8859-1"?>
<!-- Generator: Adobe Illustrator 19.0.0, SVG Export Plug-In . SVG Version: 6.00 Build 0)  -->
<svg xmlns="http://www.w3.org/2000/svg" xmlns:xlink="http://www.w3.org/1999/xlink" version="1.1" id="Layer_1" x="0px" y="0px" viewBox="0 0 511.999 511.999" style="enable-background:new 0 0 511.999 511.999;" xml:space="preserve">
<path style="fill:#A3E261;" d="M357.135,181.951c0,10.18-1.5,20.01-4.307,29.271c-12.547,41.584-51.143,71.865-96.828,71.865  c-45.671,0-84.281-30.279-96.828-71.865c-2.807-9.261-4.307-19.091-4.307-29.271c0-2.315,0.077-4.656,0.246-6.946  c3.557-52.604,47.367-94.19,100.89-94.19s97.333,41.585,100.89,94.19C357.058,177.296,357.135,179.636,357.135,181.951z"/>
<path style="fill:#90BC61;" d="M182.669,211.223c-2.807-9.261-4.307-19.091-4.307-29.271c0-2.315,0.077-4.656,0.246-6.946  c3.293-48.696,41.086-87.922,89.141-93.487c-3.857-0.446-7.772-0.703-11.749-0.703c-53.523,0-97.333,41.585-100.89,94.19  c-0.168,2.289-0.246,4.63-0.246,6.946c0,10.179,1.5,20.01,4.307,29.271c12.547,41.584,51.156,71.865,96.828,71.865  c3.976,0,7.894-0.244,11.75-0.689C227.306,277.716,194.123,249.188,182.669,211.223z"/>
<path style="fill:#A3E261;" d="M371.466,192.674c0,9.119-6.519,16.686-15.159,18.316c-0.53,0.103-1.074,0.181-1.617,0.233  c-0.608,0.065-1.229,0.103-1.863,0.103H159.171c-0.633,0-1.254-0.039-1.863-0.103c-4.397-0.44-8.356-2.393-11.318-5.368  c-2.005-2.017-3.557-4.476-4.476-7.231c-0.647-1.863-0.982-3.855-0.982-5.95c0-8.226,5.328-15.198,12.714-17.669  c1.863-0.621,3.855-0.957,5.924-0.957h193.656c2.07,0,4.062,0.337,5.924,0.957c2.768,0.919,5.238,2.471,7.256,4.488  C369.384,182.87,371.466,187.526,371.466,192.674z"/>
<path style="fill:#EA587F;" d="M311.783,51.871c-4.711-4.7-11.212-7.62-18.406-7.62h-3.023c0-0.001,0-0.001,0-0.002  c0-19.713-15.909-35.707-35.583-35.858c1.141,2.945,1.771,6.145,1.771,9.496c0,14.388-11.528,26.074-25.852,26.35v0.013  c0,0-12.073,0.001-12.073,0.002h-0.007c-14.367,0-26.026,11.659-26.026,26.026c0,7.195,2.909,13.696,7.62,18.418  c0.526,0.515,1.063,1.007,1.611,1.477c4.543,3.827,10.395,6.143,16.795,6.143h74.767c6.4,0,12.263-2.316,16.795-6.143  c5.651-4.778,9.242-11.917,9.242-19.895C319.414,63.094,316.493,56.593,311.783,51.871z"/>
<path style="fill:#FFD41D;" d="M363.26,226.527c0-9.019-7.318-16.336-16.336-16.336h-181.86c-9.019,0-16.325,7.318-16.325,16.336  v9.869h14.214l1.063,3.355l4.565,14.356l40.897,128.677l37.328,117.454c1.421,4.487,5.315,6.725,9.198,6.725  c3.894,0,7.777-2.238,9.186-6.725l78.616-247.407h0.022l5.213-16.435h14.218v-9.869H363.26z"/>
<path style="fill:#90BC61;" d="M167.251,205.854c-2.005-2.017-3.557-4.476-4.476-7.231c-0.647-1.863-0.982-3.855-0.982-5.949  c0-8.226,5.329-15.198,12.714-17.669c1.863-0.621,3.855-0.957,5.924-0.957h-21.26c-2.07,0-4.062,0.337-5.924,0.957  c-7.385,2.471-12.714,9.442-12.714,17.669c0,2.096,0.336,4.087,0.982,5.949c0.919,2.755,2.471,5.213,4.476,7.231  c2.962,2.975,6.919,4.928,11.318,5.368c0.608,0.065,1.229,0.104,1.862,0.104h21.26c-0.633,0-1.254-0.039-1.862-0.104  C174.171,210.783,170.213,208.829,167.251,205.854z"/>
<path style="fill:#CE3E6B;" d="M221.462,88.695c-4.711-4.722-7.62-11.223-7.62-18.418c0-14.367,11.659-26.026,26.026-26.026h0.007  c0-0.001,12.073-0.002,12.073-0.002v-0.013c14.322-0.275,25.852-11.961,25.852-26.35c0-0.309-0.032-0.609-0.043-0.915  c-6.199-5.291-14.216-8.514-22.987-8.581c1.141,2.945,1.771,6.145,1.771,9.496c0,14.388-11.528,26.074-25.852,26.35v0.013  c0,0-12.073,0.001-12.073,0.002h-0.007c-14.367,0-26.026,11.659-26.026,26.026c0,7.195,2.909,13.696,7.62,18.418  c0.526,0.515,1.063,1.007,1.611,1.477c4.543,3.827,10.395,6.143,16.795,6.143h21.26c-6.4,0-12.252-2.316-16.795-6.143  C222.525,89.702,221.988,89.21,221.462,88.695z"/>
<g>
	<path style="fill:#FFA91F;" d="M230.738,382.784l-40.897-128.677l-4.565-14.356l-1.063-3.355h-14.214v-9.869   c0-9.019,7.307-16.336,16.325-16.336h-21.26c-9.019,0-16.325,7.318-16.325,16.336v9.869h14.214l1.063,3.355l4.565,14.356   l40.897,128.677l37.328,117.454c1.421,4.487,5.315,6.725,9.198,6.725c3.894,0,7.777-2.238,9.186-6.725l1.438-4.525L230.738,382.784   z"/>
	<polygon style="fill:#FFA91F;" points="349.042,236.394 344.368,250.75 167.468,250.75 162.903,236.394  "/>
</g>
<path d="M379.858,192.674c0-7.22-2.812-14.009-7.916-19.115c-2.12-2.119-4.599-3.87-7.28-5.177  c-3.764-30.59-20.16-57.914-45.168-75.679c5.331-6.202,8.31-14.123,8.31-22.425c0-9.175-3.579-17.817-10.082-24.333  c-0.004-0.004-0.01-0.009-0.015-0.013c-5.404-5.392-12.28-8.772-19.709-9.765c-3.803-20.397-21.713-36.002-43.166-36.166  c-2.759-0.037-5.39,1.335-6.97,3.623c-1.58,2.287-1.925,5.209-0.92,7.801c0.798,2.061,1.203,4.236,1.203,6.464  c0,9.716-7.904,17.772-17.621,17.959c-0.104,0.002-0.207,0.006-0.309,0.011l-11.085,0.002c-0.177,0-0.351,0.003-0.524,0.011v-0.011  c-18.978,0-34.418,15.44-34.418,34.418c0,9.19,3.576,17.835,10.145,24.42c0.66,0.645,1.339,1.267,2.071,1.892  c6.212,5.234,14.097,8.117,22.202,8.117h74.767c3.791,0,7.529-0.637,11.073-1.842c22.774,13.958,38.257,36.767,42.844,62.791  h-30.309c-4.636,0-8.392,3.757-8.392,8.392s3.756,8.392,8.392,8.392h35.843c1.121,0,2.221,0.177,3.281,0.53  c1.476,0.49,2.848,1.34,3.965,2.457c1.935,1.935,3.001,4.509,3.001,7.247c0,4.924-3.5,9.16-8.372,10.078  c-0.256,0.049-0.529,0.09-0.897,0.124c-0.358,0.038-0.677,0.056-0.977,0.056H159.172c-0.3,0-0.62-0.019-1.028-0.062  c-2.35-0.235-4.552-1.279-6.199-2.933c-1.142-1.149-1.973-2.485-2.501-4.068c-0.345-0.989-0.518-2.066-0.518-3.197  c0-4.411,2.807-8.313,6.973-9.707c1.05-0.35,2.152-0.527,3.273-0.527H291.81c4.636,0,8.392-3.757,8.392-8.392  s-3.756-8.392-8.392-8.392H164.712c3.471-19.632,13.189-37.639,27.959-51.45c3.385-3.165,3.564-8.476,0.396-11.862  c-3.165-3.386-8.476-3.564-11.862-0.397c-18.854,17.631-30.753,41.058-33.879,66.45c-9.202,4.478-15.186,13.829-15.186,24.275  c0,3.01,0.487,5.939,1.414,8.605c1.302,3.905,3.544,7.533,6.489,10.496c1.037,1.043,2.162,1.986,3.347,2.839  c-1.951,3.563-3.041,7.629-3.041,11.912v9.869c0,4.635,3.756,8.392,8.392,8.392h9.135l80.928,254.628  c2.42,7.645,9.171,12.585,17.198,12.585c8.04,0,14.788-4.947,17.183-12.576l36.246-114.064c1.404-4.418-1.039-9.136-5.456-10.539  c-4.416-1.4-9.136,1.039-10.539,5.456l-36.253,114.091c-0.093,0.297-0.266,0.848-1.18,0.848c-0.922,0-1.108-0.584-1.2-0.875  l-79.314-249.553h161.018l-36.072,113.474c-1.404,4.418,1.039,9.136,5.456,10.539c0.846,0.269,1.702,0.396,2.543,0.396  c3.558,0,6.861-2.281,7.996-5.852l37.69-118.556h9.147c4.636,0,8.392-3.757,8.392-8.392v-9.869c0-4.281-1.089-8.344-3.038-11.905  C375.489,209.667,379.858,201.6,379.858,192.674z M218.609,87.923c-4.213,0-8.15-1.441-11.336-4.124  c-0.411-0.351-0.812-0.721-1.13-1.031c-3.333-3.341-5.168-7.777-5.168-12.491c0-9.724,7.91-17.634,17.642-17.634  c0.013,0,0.027,0,0.04,0c0.574-0.001,12.033-0.002,12.033-0.002c0.237,0,0.473-0.01,0.706-0.029  c18.222-0.638,33.017-15.584,33.523-33.765c9.983,4.127,17.041,13.983,17.041,25.405c0,4.635,3.756,8.392,8.392,8.392h3.023  c4.701,0,9.127,1.831,12.468,5.156c3.338,3.348,5.177,7.779,5.177,12.478c0,5.202-2.285,10.117-6.265,13.483  c-3.179,2.684-7.22,4.162-11.381,4.162h-74.767V87.923z M157.134,228.002v-1.477c0-2.844,1.48-5.394,3.855-6.808H351.01  c2.379,1.413,3.863,3.963,3.863,6.808v1.477H157.134z"/>
<g>
</g>
<g>
</g>
<g>
</g>
<g>
</g>
<g>
</g>
<g>
</g>
<g>
</g>
<g>
</g>
<g>
</g>
<g>
</g>
<g>
</g>
<g>
</g>
<g>
</g>
<g>
</g>
<g>
</g>
</svg>
