<?xml version="1.0" encoding="iso-8859-1"?>
<!-- Generator: Adobe Illustrator 19.0.0, SVG Export Plug-In . SVG Version: 6.00 Build 0)  -->
<svg xmlns="http://www.w3.org/2000/svg" xmlns:xlink="http://www.w3.org/1999/xlink" version="1.1" id="Layer_1" x="0px" y="0px" viewBox="0 0 511.997 511.997" style="enable-background:new 0 0 511.997 511.997;" xml:space="preserve">
<path style="fill:#F9DB87;" d="M287.609,360.131v111.886c0,17.473-14.164,31.626-31.626,31.626  c-17.473,0-31.626-14.153-31.626-31.626V360.131H287.609z"/>
<g>
	<path style="fill:#E5B94C;" d="M242.738,472.017V360.131h-18.381v111.886c0,17.473,14.153,31.626,31.626,31.626   c3.196,0,6.28-0.479,9.188-1.36C252.185,498.346,242.738,486.292,242.738,472.017z"/>
	<polygon style="fill:#E5B94C;" points="281.457,360.375 224.357,360.375 224.357,401.386 255.983,388.497 287.609,378.424    287.609,378.424 287.609,360.131  "/>
</g>
<path style="fill:#FFD41D;" d="M221.163,377.657l43.965-17.919c13.408-5.465,19.847-20.764,14.383-34.172l0,0  c-5.465-13.408-20.764-19.847-34.172-14.383l-43.965,17.919c-13.408,5.465-19.847,20.764-14.383,34.172l0,0  C192.455,376.683,207.754,383.123,221.163,377.657z"/>
<path style="fill:#FFA91F;" d="M206.647,363.275L206.647,363.275c-5.465-13.408,0.974-28.708,14.383-34.172l43.965-17.919  c0.021-0.009,0.04-0.015,0.061-0.023c-6.105-2.468-13.138-2.659-19.717,0.023l-43.965,17.919  c-13.408,5.465-19.847,20.764-14.383,34.172l0,0c5.457,13.388,20.719,19.827,34.112,14.405  C214.766,375.118,209.43,370.103,206.647,363.275z"/>
<path style="fill:#669FF2;" d="M254.285,364.157l1.698,0.727l34.826,14.91c3.244,1.385,6.585,2.045,9.882,2.045  c10.347,0,20.143-6.473,24.295-17.147c5.46-14.081-0.973-30.149-14.391-35.895l-14.802-6.337c1.633,0.314,3.271,0.468,4.898,0.468  c10.347,0,20.143-6.163,24.295-16.327c5.46-13.407-0.973-28.707-14.391-34.178l-9.867-4.022c10.327-0.011,20.11-6.47,24.259-17.116  c5.46-14.056-0.973-30.097-14.391-35.833l-14.899-6.367c1.668,0.327,3.344,0.487,5.006,0.487c10.337,0,20.133-6.163,24.284-16.327  c5.46-13.407-0.973-28.707-14.391-34.167l-5.842-2.382c8.771-1.508,16.629-7.852,20.233-17.5  c5.46-14.662-0.973-31.391-14.391-37.363l-13.056-5.82c1.056,0.13,2.112,0.2,3.163,0.2c10.337,0,20.133-6.163,24.284-16.327  c4.042-9.925,1.561-20.881-5.44-28.121c7.001-7.244,9.48-18.2,5.44-28.125c-4.152-10.164-13.948-16.327-24.295-16.327  c-3.298,0-6.639,0.627-9.882,1.946l-34.826,14.197L221.167,9.26c-3.244-1.319-6.596-1.946-9.893-1.946  c-10.347,0-20.143,6.163-24.284,16.327c-5.46,13.407,0.973,28.707,14.38,34.178l5.829,2.374c-8.77,1.515-16.617,7.855-20.209,17.495  c-5.46,14.661,0.973,31.391,14.38,37.374l13.023,5.803c-1.042-0.125-2.084-0.196-3.119-0.196c-10.347,0-20.143,6.163-24.284,16.327  c-5.46,13.407,0.973,28.707,14.38,34.178l9.873,4.022c-10.335,0.013-20.116,6.471-24.253,17.116  c-5.46,14.056,0.973,30.097,14.38,35.833l14.903,6.366c-1.666-0.325-3.339-0.485-4.999-0.485c-10.347,0-20.143,6.163-24.284,16.327  c-5.46,13.407,0.973,28.707,14.38,34.178l9.691,3.949c-10.268,0.089-19.958,6.538-24.071,17.139  c-4.042,10.423-1.561,21.931,5.435,29.534L254.285,364.157z"/>
<path style="fill:#3678C6;" d="M210.173,343.474c-6.997-7.603-9.25-20.101-5.208-30.524c4.113-10.6,13.803-17.05,24.071-17.139  l-9.691-3.949c-13.407-5.471-19.841-20.77-14.38-34.178c4.141-10.164,13.937-16.327,24.284-16.327c1.66,0,3.332,0.16,4.999,0.485  l-14.903-6.366c-13.407-5.736-19.841-21.776-14.38-35.833c4.137-10.645,13.918-17.103,24.253-17.116l-9.873-4.022  c-13.407-5.471-19.841-20.77-14.38-34.178c4.141-10.164,13.937-16.327,24.284-16.327c1.036,0,2.078,0.069,3.119,0.196l-13.023-5.803  c-13.407-5.982-19.841-22.713-14.38-37.374c3.592-9.64,11.439-15.981,20.209-17.495l-5.829-2.374  c-13.407-5.471-19.841-20.77-14.38-34.178c4.141-10.164,13.937-16.327,24.284-16.327c3.298,0,6.65,0.627,9.893,1.946l34.816,14.197  l34.826-14.197c3.244-1.319,6.585-1.946,9.882-1.946c0.069,0,0.137,0.008,0.205,0.008c-4.873-4.681-11.404-7.339-18.181-7.339  c-3.298,0-6.639,0.627-9.882,1.946l-34.826,14.197L221.167,9.261c-3.244-1.319-6.596-1.946-9.893-1.946  c-10.347,0-20.143,6.163-24.284,16.327c-5.46,13.407,0.973,28.707,14.38,34.178l5.829,2.374c-8.77,1.515-16.617,7.855-20.209,17.495  c-5.46,14.661,0.973,31.391,14.38,37.374l13.023,5.803c-1.042-0.125-2.084-0.196-3.119-0.196c-10.347,0-20.143,6.163-24.284,16.327  c-5.46,13.407,0.973,28.707,14.38,34.178l9.873,4.022c-10.336,0.013-20.116,6.471-24.253,17.116  c-5.46,14.056,0.973,30.097,14.38,35.833l14.903,6.366c-1.666-0.325-3.339-0.485-4.999-0.485c-10.347,0-20.143,6.163-24.284,16.327  c-5.46,13.407,0.973,28.707,14.38,34.178l9.691,3.949c-10.268,0.089-19.958,6.538-24.071,17.139  c-4.042,10.423-1.561,21.931,5.435,29.534L210.173,343.474z"/>
<g>
	<path style="fill:#FFD41D;" d="M324.987,79.886c-4.152,10.164-13.948,16.327-24.284,16.327c-3.298,0-6.65-0.627-9.893-1.946   L255.983,80.07L201.37,57.818c-13.407-5.471-19.841-20.77-14.38-34.178c4.141-10.164,13.937-16.327,24.284-16.327   c3.298,0,6.65,0.627,9.893,1.946l34.816,14.197l54.613,22.263C324.014,51.18,330.447,66.48,324.987,79.886z"/>
	<path style="fill:#FFD41D;" d="M324.987,193.243c-4.152,10.164-13.948,16.327-24.284,16.327c-3.298,0-6.65-0.627-9.893-1.946   l-34.826-14.197l-54.613-22.252c-13.407-5.471-19.841-20.77-14.38-34.178c4.141-10.164,13.937-16.327,24.284-16.327   c3.298,0,6.65,0.627,9.893,1.946l34.816,14.197l54.613,22.263C324.014,164.536,330.447,179.836,324.987,193.243z"/>
	<path style="fill:#FFD41D;" d="M324.987,306.599c-4.152,10.164-13.948,16.327-24.295,16.327c-3.298,0-6.639-0.627-9.882-1.946   l-34.826-14.197l-54.613-22.252c-13.407-5.471-19.841-20.77-14.38-34.178c4.141-10.164,13.937-16.327,24.284-16.327   c3.298,0,6.65,0.627,9.893,1.946l34.816,14.186l54.613,22.263C324.014,277.893,330.447,293.192,324.987,306.599z"/>
</g>
<g>
	<path style="fill:#FFA91F;" d="M272.561,86.737l-54.613-22.252c-13.407-5.471-19.841-20.77-14.38-34.178   c4.141-10.164,13.937-16.327,24.284-16.327c2.658,0,5.349,0.415,7.991,1.263L221.167,9.26c-3.244-1.319-6.596-1.946-9.893-1.946   c-10.347,0-20.143,6.163-24.284,16.327c-5.46,13.407,0.973,28.707,14.38,34.178l54.613,22.252l34.826,14.197   c0.623,0.253,1.25,0.474,1.88,0.676L272.561,86.737z"/>
	<path style="fill:#FFA91F;" d="M272.561,200.094l-54.613-22.252c-13.407-5.471-19.841-20.77-14.38-34.178   c4.141-10.164,13.937-16.327,24.284-16.327c2.658,0,5.349,0.415,7.991,1.263l-14.677-5.985c-3.244-1.319-6.596-1.946-9.893-1.946   c-10.347,0-20.143,6.163-24.284,16.327c-5.46,13.407,0.973,28.707,14.38,34.178l54.613,22.252l34.826,14.197   c0.623,0.253,1.25,0.474,1.88,0.676L272.561,200.094z"/>
	<path style="fill:#FFA91F;" d="M272.561,313.45l-54.613-22.252c-13.407-5.471-19.841-20.77-14.38-34.178   c4.141-10.164,13.937-16.327,24.284-16.327c2.676,0,5.386,0.421,8.047,1.281l-14.732-6.002c-3.244-1.319-6.596-1.946-9.893-1.946   c-10.347,0-20.143,6.163-24.284,16.327c-5.46,13.407,0.973,28.707,14.38,34.178l54.613,22.252l34.826,14.197   c0.624,0.254,1.253,0.475,1.884,0.677L272.561,313.45z"/>
</g>
<path d="M332.497,140.418c3.458-8.492,3.403-17.821-0.154-26.269c-2.599-6.174-6.847-11.33-12.256-15.013  c5.427-3.712,9.791-8.988,12.406-15.389c0.001-0.002,0.002-0.005,0.003-0.008c3.458-8.492,3.403-17.821-0.154-26.269  c-0.725-1.723-1.585-3.363-2.556-4.919c5.777-9.235,6.919-20.832,2.703-31.179c-5.302-12.981-17.786-21.369-31.802-21.369  c-4.434,0-8.786,0.856-12.943,2.546l-31.756,12.945L224.222,2.543C220.072,0.856,215.716,0,211.274,0  c-14.024,0-26.503,8.39-31.795,21.377c-6.197,15.216-0.639,32.349,12.402,41.279c-5.429,3.714-9.793,8.994-12.402,15.398  c-6.197,15.216-0.639,32.349,12.403,41.28c-5.429,3.714-9.793,8.994-12.403,15.398c-6.197,15.216-0.64,32.349,12.402,41.28  c-5.429,3.714-9.793,8.994-12.402,15.398c-6.197,15.216-0.639,32.349,12.403,41.28c-5.429,3.714-9.793,8.994-12.403,15.398  c-6.197,15.216-0.639,32.349,12.402,41.279c-5.429,3.714-9.793,8.994-12.402,15.398c-4.317,10.604-2.926,22.131,2.719,31.167  c-5.791,9.232-6.939,20.836-2.719,31.195c5.3,12.99,17.788,21.382,31.814,21.382c1.665,0,3.318-0.121,4.952-0.36v84.112  c0,21.91,17.825,39.735,39.735,39.735s39.735-17.825,39.735-39.735v-22.976c0-4.478-3.63-8.109-8.109-8.109  s-8.109,3.631-8.109,8.109v22.976c0,12.967-10.55,23.517-23.517,23.517c-12.967,0-23.517-10.55-23.517-23.517v-89.658l23.523-9.593  l23.51,9.584v41.28c0,4.478,3.63,8.109,8.109,8.109s8.109-3.631,8.109-8.109V388.14c1.643,0.242,3.304,0.364,4.977,0.364  c14.016,0,26.499-8.388,31.805-21.377c6.2-15.224,0.633-32.362-12.409-41.284c5.429-3.713,9.794-8.99,12.409-15.395  c6.197-15.219,0.636-32.353-12.409-41.28c5.428-3.712,9.792-8.989,12.406-15.39c0.001-0.002,0.002-0.005,0.003-0.008  c6.198-15.218,0.636-32.353-12.41-41.28c5.428-3.713,9.794-8.993,12.41-15.397c3.458-8.491,3.403-17.82-0.154-26.269  c-2.6-6.177-6.852-11.336-12.255-15.014C325.517,152.1,329.882,146.822,332.497,140.418z M293.87,144.23l-30.296-12.349  c-4.148-1.692-8.879,0.302-10.57,4.448c-1.69,4.148,0.301,8.88,4.448,10.57l30.3,12.352c0.002,0.001,0.005,0.002,0.008,0.003  l19.778,8.128c4.482,1.824,7.982,5.282,9.858,9.739c1.876,4.457,1.905,9.379,0.083,13.851c-2.8,6.855-9.386,11.285-16.777,11.285  c-2.337,0-4.638-0.454-6.832-1.346l-89.436-36.446c-9.243-3.772-13.7-14.364-9.934-23.61c2.792-6.851,9.375-11.277,16.774-11.277  c2.337,0,4.638,0.454,6.839,1.349c0.275,0.111,0.553,0.205,0.831,0.285l16.061,6.544c4.147,1.69,8.88-0.302,10.57-4.45  c1.69-4.148-0.303-8.879-4.45-10.569l-36.691-14.949c-9.243-3.772-13.699-14.364-9.934-23.61  c2.792-6.851,9.375-11.277,16.774-11.277c2.337,0,4.638,0.454,6.831,1.346l89.433,36.461c4.482,1.823,7.982,5.282,9.858,9.739  c1.876,4.457,1.905,9.379,0.083,13.851c-2.8,6.855-9.386,11.284-16.777,11.284C298.366,145.577,296.065,145.123,293.87,144.23z   M293.87,257.587l-89.436-36.446c-9.243-3.772-13.699-14.364-9.934-23.61c2.792-6.851,9.375-11.277,16.774-11.277  c2.338,0,4.638,0.453,6.833,1.347l89.427,36.447c9.247,3.77,13.707,14.357,9.946,23.602c-2.8,6.855-9.385,11.284-16.777,11.284  C298.366,258.933,296.064,258.479,293.87,257.587z M293.862,17.571c2.201-0.895,4.498-1.349,6.827-1.349  c7.399,0,13.988,4.429,16.785,11.277c1.78,4.369,1.741,9.16,0.094,13.4c-1.255-0.705-2.557-1.343-3.912-1.894l-36.185-14.752  L293.862,17.571z M194.499,27.496c2.792-6.851,9.375-11.277,16.775-11.277c2.338,0,4.638,0.454,6.831,1.346l89.433,36.461  c4.482,1.823,7.982,5.282,9.858,9.739c1.875,4.454,1.905,9.372,0.083,13.851c-2.8,6.855-9.386,11.284-16.777,11.284  c-2.337,0-4.637-0.454-6.832-1.346l-89.436-36.447C195.191,47.333,190.734,36.741,194.499,27.496z M218.102,370.949  c-2.188,0.893-4.48,1.345-6.809,1.345c-7.405,0-13.999-4.432-16.796-11.287c-1.781-4.371-1.742-9.163-0.094-13.401  c1.248,0.703,2.546,1.343,3.905,1.896l36.199,14.756L218.102,370.949z M317.48,361.006c-2.8,6.855-9.389,11.285-16.787,11.285  c-2.33,0-4.627-0.454-6.823-1.347l-89.442-36.459c-9.241-3.764-13.696-14.35-9.93-23.597c2.792-6.851,9.375-11.277,16.774-11.277  c2.337,0,4.638,0.454,6.84,1.349c0.272,0.11,0.547,0.203,0.823,0.282l37.297,15.451c4.153,1.691,8.88-0.303,10.57-4.449  s-0.301-8.879-4.448-10.57l-57.922-23.854c-9.243-3.772-13.699-14.364-9.934-23.61c2.792-6.851,9.375-11.277,16.774-11.277  c2.337,0,4.638,0.454,6.833,1.347l89.427,36.447c9.249,3.771,13.71,14.363,9.946,23.602c-2.8,6.855-9.389,11.284-16.787,11.284  c-2.33,0-4.628-0.453-6.823-1.346l-8.953-3.649c-4.148-1.691-8.88,0.302-10.57,4.448c-1.69,4.147,0.301,8.879,4.448,10.57  l8.947,3.647l19.791,8.121C316.783,341.174,321.243,351.766,317.48,361.006z"/>
<g>
</g>
<g>
</g>
<g>
</g>
<g>
</g>
<g>
</g>
<g>
</g>
<g>
</g>
<g>
</g>
<g>
</g>
<g>
</g>
<g>
</g>
<g>
</g>
<g>
</g>
<g>
</g>
<g>
</g>
</svg>
