<?xml version="1.0" encoding="iso-8859-1"?>
<!-- Generator: Adobe Illustrator 19.0.0, SVG Export Plug-In . SVG Version: 6.00 Build 0)  -->
<svg xmlns="http://www.w3.org/2000/svg" xmlns:xlink="http://www.w3.org/1999/xlink" version="1.1" id="Layer_1" x="0px" y="0px" viewBox="0 0 512 512" style="enable-background:new 0 0 512 512;" xml:space="preserve">
<path style="fill:#EA587F;" d="M288.571,359.293v133.047c0,6.144-4.984,11.128-11.139,11.128h-39.176  c-6.144,0-11.128-4.984-11.128-11.128V359.293c0-6.156,4.984-11.128,11.128-11.128h39.176  C283.587,348.165,288.571,353.137,288.571,359.293z"/>
<g>
	<path style="fill:#CE3E6B;" d="M254.641,492.339V359.293c0-6.156,4.984-11.128,11.128-11.128h-27.513   c-6.144,0-11.128,4.972-11.128,11.128v133.047c0,6.144,4.984,11.128,11.128,11.128h27.513   C259.625,503.467,254.641,498.484,254.641,492.339z"/>
	<rect x="227.122" y="357.7" style="fill:#CE3E6B;" width="61.439" height="31.1"/>
</g>
<path style="fill:#EA587F;" d="M388.7,330.335v14.377c0,7.28-5.406,13.439-12.626,14.366c-39.859,5.121-79.963,7.689-120.067,7.689  c-40.114,0-80.218-2.569-120.079-7.689c-7.221-0.927-12.627-7.086-12.627-14.366v-14.377H388.7z"/>
<path style="fill:#CAF9F5;" d="M380.36,330.335H131.641L154.91,40.382c1.445-17.989,16.464-31.848,34.51-31.848h133.172  c18.046,0,33.065,13.859,34.51,31.848L380.36,330.335z"/>
<path style="fill:#CE3E6B;" d="M163.44,359.079c-7.221-0.927-12.627-7.086-12.627-14.367v-14.376h-27.513v14.377  c0,7.281,5.406,13.439,12.627,14.367c39.859,5.12,79.964,7.689,120.079,7.689c4.585,0,9.17-0.043,13.755-0.11  C234.237,366.138,198.743,363.614,163.44,359.079z"/>
<path style="fill:#9AF7EB;" d="M216.933,8.534H189.42c-18.046,0-33.065,13.859-34.51,31.848l-23.269,289.953h27.513l23.269-289.953  C183.868,22.393,198.887,8.534,216.933,8.534z"/>
<path style="fill:#ACE5FC;" d="M300.518,223.242v107.093h-85.337V223.242c0-22.95,18.114-41.667,40.825-42.623  c0.614-0.034,1.229-0.046,1.843-0.046C281.414,180.574,300.518,199.678,300.518,223.242z"/>
<path d="M388.7,321.801h-0.463L365.609,39.699C363.82,17.437,344.925,0,322.592,0h-19.937c-4.713,0-8.534,3.821-8.534,8.534  s3.821,8.534,8.534,8.534h19.937c13.5,0,24.923,10.541,26.004,23.997l22.519,280.737h-62.063v-98.559  c0-28.233-22.969-51.202-51.202-51.202c-0.752,0-1.505,0.015-2.257,0.056c-19.853,0.857-37.558,13.293-45.118,31.697  c-1.791,4.359,0.291,9.345,4.65,11.137c4.359,1.791,9.345-0.291,11.137-4.65c5.045-12.279,16.863-20.575,30.105-21.133  c0.04-0.001,0.079-0.003,0.118-0.006c0.455-0.025,0.91-0.032,1.365-0.032c18.822,0,34.135,15.313,34.135,34.135v98.559h-68.27  v-89.389c0-4.713-3.821-8.534-8.534-8.534c-4.713,0-8.534,3.821-8.534,8.534v89.389h-65.76l22.529-280.736  c1.081-13.458,12.504-23.999,26.004-23.999h82.513c4.713,0,8.534-3.821,8.534-8.534S276.647,0,271.934,0H189.42  c-22.333,0-41.228,17.437-43.017,39.699l-22.638,282.102h-0.464c-4.713,0-8.534,3.821-8.534,8.534v14.377  c0,11.546,8.629,21.361,20.074,22.831c27.713,3.56,55.754,5.877,83.751,6.986v117.81c0,10.841,8.819,19.662,19.662,19.662h39.175  c10.848,0,19.673-8.82,19.673-19.662v-29.514c0-4.713-3.821-8.534-8.534-8.534c-4.713,0-8.534,3.821-8.534,8.534v29.514  c0,1.43-1.169,2.594-2.606,2.594h-39.176c-1.43,0-2.594-1.164-2.594-2.594V375.054c6.791,0.147,13.575,0.248,20.347,0.248  c7.994,0,16.008-0.132,24.029-0.337v61.12c0,4.713,3.821,8.534,8.534,8.534c4.713,0,8.534-3.821,8.534-8.534V374.38  c26.767-1.164,53.562-3.434,80.058-6.838c11.443-1.47,20.072-11.285,20.072-22.831v-14.376  C397.234,325.622,393.413,321.801,388.7,321.801z M380.166,344.712c0,2.986-2.228,5.523-5.181,5.903  c-39.359,5.057-79.389,7.62-118.98,7.62c-39.598,0-79.632-2.564-118.991-7.62c-2.954-0.379-5.182-2.916-5.182-5.903v-5.843h83.346  h85.337h79.648v5.843H380.166z"/>
<g>
</g>
<g>
</g>
<g>
</g>
<g>
</g>
<g>
</g>
<g>
</g>
<g>
</g>
<g>
</g>
<g>
</g>
<g>
</g>
<g>
</g>
<g>
</g>
<g>
</g>
<g>
</g>
<g>
</g>
</svg>
