<?xml version="1.0" encoding="iso-8859-1"?>
<!-- Generator: Adobe Illustrator 19.0.0, SVG Export Plug-In . SVG Version: 6.00 Build 0)  -->
<svg xmlns="http://www.w3.org/2000/svg" xmlns:xlink="http://www.w3.org/1999/xlink" version="1.1" id="Layer_1" x="0px" y="0px" viewBox="0 0 511.999 511.999" style="enable-background:new 0 0 511.999 511.999;" xml:space="preserve">
<path style="fill:#FCEDCA;" d="M314.581,31.268v340.297c0,7.977-4.049,14.996-10.199,19.122c-3.664,2.464-8.076,3.895-12.818,3.895  h-71.129c-12.718,0-23.017-10.298-23.017-23.017V31.268c0-8.054,4.126-15.139,10.386-19.243c3.62-2.387,7.966-3.774,12.63-3.774  h71.129C304.282,8.252,314.581,18.55,314.581,31.268z"/>
<path style="fill:#DDC89F;" d="M222.718,371.565V31.268c0-8.054,4.126-15.139,10.386-19.243c3.62-2.387,7.966-3.774,12.63-3.774  h-25.299c-4.665,0-9.011,1.386-12.63,3.774c-6.26,4.104-10.386,11.189-10.386,19.243v340.297c0,12.718,10.298,23.017,23.017,23.017  h25.299C233.016,394.582,222.718,384.284,222.718,371.565z"/>
<path style="fill:#CE3E3E;" d="M314.581,50.808v36.868l-58.576-21.267l-58.587-21.278V31.268c0-8.054,4.126-15.139,10.386-19.243  l48.2,17.504L314.581,50.808z M256.005,106.215l-58.587-21.278v36.868l58.587,21.278l58.576,21.267v-36.857L256.005,106.215z   M256.005,182.889l-58.587-21.278v36.879l58.587,21.278l58.576,21.267v-36.868L256.005,182.889z M256.005,259.574l-58.587-21.278  v36.879l58.587,21.278l58.576,21.267v-36.868L256.005,259.574z M256.005,336.259l-58.587-21.278v36.868l58.587,21.267l48.376,17.57  c6.15-4.126,10.199-11.145,10.199-19.122v-14.028L256.005,336.259z"/>
<path style="fill:#F9DB87;" d="M270.027,394.585v99.372c0,5.402-4.39,9.792-9.792,9.792h-8.472c-5.402,0-9.792-4.39-9.792-9.792  v-99.372H270.027z"/>
<g>
	<path style="fill:#E5B94C;" d="M254.621,493.956v-99.372h-12.649v99.372c0,5.402,4.39,9.792,9.792,9.792h8.472   c0.717,0,1.415-0.083,2.089-0.229C257.924,502.559,254.621,498.641,254.621,493.956z"/>
	<rect x="241.969" y="394.582" style="fill:#E5B94C;" width="28.054" height="21.613"/>
</g>
<g>
	<path style="fill:#E85858;" d="M222.718,324.17v36.864l33.287,12.084l48.377,17.57c6.15-4.126,10.199-11.145,10.199-19.122v-14.028   l-58.576-21.278L222.718,324.17z"/>
	<polygon style="fill:#E85858;" points="222.718,247.485 222.718,284.364 256.005,296.453 314.581,317.72 314.581,280.852    256.005,259.574  "/>
	<polygon style="fill:#E85858;" points="222.718,170.8 222.718,207.679 256.005,219.768 314.581,241.035 314.581,204.167    256.005,182.889  "/>
	<path style="fill:#E85858;" d="M256.005,29.53l-29.606-10.751c-2.327,3.597-3.681,7.883-3.681,12.49V54.32l33.287,12.089   l58.576,21.267V50.808L256.005,29.53z"/>
	<polygon style="fill:#E85858;" points="222.718,94.126 222.718,130.994 256.005,143.083 314.581,164.35 314.581,127.493    256.005,106.215  "/>
</g>
<path d="M291.564,0h-71.129c-6.14,0-12.078,1.777-17.155,5.124c-8.838,5.794-14.114,15.567-14.114,26.143v340.297  c0,17.241,14.027,31.268,31.268,31.268h21.473c0.022,0,0.042,0.003,0.064,0.003h19.804v91.12c0,0.849-0.691,1.54-1.54,1.54h-8.472  c-0.849,0-1.54-0.691-1.54-1.54v-71.872c0-4.557-3.695-8.252-8.252-8.252c-4.557,0-8.252,3.695-8.252,8.252v71.872  c0,9.949,8.094,18.044,18.044,18.044h8.472c9.949,0,18.044-8.094,18.044-18.044v-91.122h13.285c6.244,0,12.267-1.833,17.414-5.294  c8.675-5.819,13.854-15.53,13.854-25.974V31.268C322.832,14.027,308.804,0,291.564,0z M302.666,381.285l-96.996-35.219v-19.31  l100.659,36.562v8.246C306.329,375.191,304.998,378.624,302.666,381.285z M209.454,21.404l96.875,35.186v19.311L205.67,39.348v-8.08  C205.67,27.567,207.042,24.08,209.454,21.404z M205.67,173.387l100.659,36.561v19.311L205.67,192.707L205.67,173.387L205.67,173.387  z M306.329,192.39L205.67,155.829v-22.249l100.659,36.552V192.39z M205.67,250.071l23.315,8.468c0.93,0.338,1.881,0.498,2.817,0.498  c3.372,0,6.539-2.084,7.757-5.436c1.556-4.284-0.656-9.017-4.939-10.573l-28.95-10.515v-22.249l100.659,36.552v22.257  l-47.506-17.257c-4.282-1.557-9.017,0.656-10.573,4.939c-1.556,4.283,0.655,9.017,4.939,10.573l53.14,19.304v19.311l-100.659-36.552  v-19.322H205.67z M306.329,93.459v22.257l-14.322-5.203c-4.279-1.556-9.017,0.655-10.573,4.939s0.655,9.017,4.939,10.573  l19.956,7.249v19.3L205.67,116.022V96.713l58.705,21.322c0.93,0.338,1.881,0.498,2.817,0.498c3.372,0,6.539-2.083,7.757-5.436  c1.556-4.283-0.655-9.017-4.939-10.573l-64.34-23.369v-22.25L306.329,93.459z M205.67,309.199v-22.249l100.659,36.552v22.258  L205.67,309.199z M306.329,31.268v7.764l-62.026-22.529h47.261C299.704,16.503,306.329,23.127,306.329,31.268z M205.67,371.565  v-7.941l62.535,22.706h-47.77C212.293,386.33,205.67,379.707,205.67,371.565z"/>
<g>
</g>
<g>
</g>
<g>
</g>
<g>
</g>
<g>
</g>
<g>
</g>
<g>
</g>
<g>
</g>
<g>
</g>
<g>
</g>
<g>
</g>
<g>
</g>
<g>
</g>
<g>
</g>
<g>
</g>
</svg>
