<?xml version="1.0" encoding="iso-8859-1"?>
<!-- Generator: Adobe Illustrator 19.0.0, SVG Export Plug-In . SVG Version: 6.00 Build 0)  -->
<svg xmlns="http://www.w3.org/2000/svg" xmlns:xlink="http://www.w3.org/1999/xlink" version="1.1" id="Layer_1" x="0px" y="0px" viewBox="0 0 512.002 512.002" style="enable-background:new 0 0 512.002 512.002;" xml:space="preserve">
<path style="fill:#E85858;" d="M356.002,355.462H156.001c-21.545,0-36.627-21.288-29.482-41.617L226.519,29.259  c4.89-13.932,17.18-20.887,29.482-20.887c12.291,0,24.582,6.955,29.482,20.887l100.001,284.586  C392.629,334.173,377.547,355.462,356.002,355.462z"/>
<path style="fill:#A3E261;" d="M356.002,355.462H156.001c-21.545,0-36.627-21.288-29.482-41.617h258.966  C392.629,334.173,377.547,355.462,356.002,355.462z"/>
<path style="fill:#F9DB87;" d="M288.651,355.457v115.518c0,18.04-14.624,32.653-32.653,32.653c-18.04,0-32.653-14.613-32.653-32.653  V355.457H288.651z"/>
<rect x="223.346" y="355.462" style="fill:#E5B94C;" width="65.305" height="25.564"/>
<path style="fill:#CE3E3E;" d="M148.358,313.845L248.359,29.259c3.415-9.729,10.442-16.044,18.559-18.975  c-3.504-1.266-7.209-1.911-10.917-1.911c-12.302,0-24.593,6.955-29.482,20.887L126.518,313.845  c-7.145,20.328,7.937,41.617,29.482,41.617h21.84C156.295,355.462,141.214,334.173,148.358,313.845z"/>
<path style="fill:#90BC61;" d="M148.358,313.845h-21.84c-7.145,20.328,7.937,41.617,29.482,41.617h21.84  C156.295,355.462,141.214,334.173,148.358,313.845z"/>
<path style="fill:#E5B94C;" d="M245.672,470.975V355.457h-22.327v115.518c0,18.04,14.613,32.653,32.653,32.653  c3.919,0,7.678-0.692,11.161-1.959C254.622,497.109,245.672,485.092,245.672,470.975z"/>
<path d="M393.385,311.07L293.383,26.48C287.722,10.394,273.05,0,256.001,0c-17.062,0-31.736,10.396-37.381,26.484l-79.2,225.391  c-1.533,4.363,0.761,9.142,5.124,10.674c4.358,1.533,9.142-0.761,10.675-5.124l79.2-225.394  c3.955-11.272,13.742-15.287,21.582-15.287c7.834,0,17.618,4.018,21.583,15.289l96.084,273.438h-28.357  c-4.625,0-8.372,3.749-8.372,8.372s3.747,8.372,8.372,8.372h33.497c0.491,5.343-0.922,10.68-4.139,15.221  c-4.347,6.133-11.15,9.652-18.667,9.652H156c-7.517,0-14.321-3.518-18.668-9.652c-3.217-4.54-4.629-9.876-4.138-15.22h186.442  c4.625,0,8.372-3.749,8.372-8.372c0-4.624-3.748-8.372-8.372-8.372h-181.3l7.38-21.003c1.533-4.363-0.761-9.142-5.124-10.674  c-4.361-1.533-9.142,0.76-10.675,5.124l-11.297,32.15c-4.317,12.285-2.477,25.424,5.05,36.049  c7.526,10.624,19.311,16.717,32.331,16.717h58.971v107.141c0,22.621,18.404,41.025,41.025,41.025s41.025-18.404,41.025-41.025  v-89.954c0-4.624-3.747-8.372-8.372-8.372c-4.625,0-8.372,3.749-8.372,8.372v89.954c0,13.388-10.892,24.28-24.28,24.28  c-13.388,0-24.28-10.892-24.28-24.28V363.834h124.285c13.02,0,24.804-6.093,32.33-16.716  C395.86,336.494,397.702,323.354,393.385,311.07z"/>
<g>
</g>
<g>
</g>
<g>
</g>
<g>
</g>
<g>
</g>
<g>
</g>
<g>
</g>
<g>
</g>
<g>
</g>
<g>
</g>
<g>
</g>
<g>
</g>
<g>
</g>
<g>
</g>
<g>
</g>
</svg>
