<?xml version="1.0" encoding="iso-8859-1"?>
<!-- Generator: Adobe Illustrator 19.0.0, SVG Export Plug-In . SVG Version: 6.00 Build 0)  -->
<svg xmlns="http://www.w3.org/2000/svg" xmlns:xlink="http://www.w3.org/1999/xlink" version="1.1" id="Layer_1" x="0px" y="0px" viewBox="0 0 512 512" style="enable-background:new 0 0 512 512;" xml:space="preserve">
<path style="fill:#A3E261;" d="M394.572,147.689c0,14.976-2.37,29.404-6.783,42.909c-18.051,55.526-70.234,95.663-131.789,95.663  c-76.531,0-138.572-62.041-138.572-138.572S179.469,9.117,256,9.117c62.674,0,115.635,41.62,132.75,98.727  C392.542,120.461,394.572,133.832,394.572,147.689z"/>
<path style="fill:#90BC61;" d="M153.943,147.689c0-70.329,52.396-128.415,120.281-137.369C268.259,9.536,262.179,9.117,256,9.117  c-76.531,0-138.572,62.041-138.572,138.572S179.469,286.261,256,286.261c6.175,0,12.249-0.422,18.211-1.205  C206.333,276.098,153.943,218.014,153.943,147.689z"/>
<path style="fill:#FFD41D;" d="M401.258,195.095l-3.404,30.194l-27.654,245.249c-2.079,18.428-17.662,32.346-36.211,32.346H178.011  c-12.836,0-24.25-6.661-30.753-16.872c-2.893-4.546-4.826-9.797-5.458-15.474l-27.654-245.248l-0.109-1.009l-3.294-29.185  L401.258,195.095L401.258,195.095z"/>
<path style="fill:#FFA91F;" d="M183.772,486.012c-2.893-4.546-4.826-9.797-5.458-15.474l-27.654-245.249l-0.109-1.009l-3.294-29.185  h-36.515l3.294,29.185l0.109,1.009l27.654,245.249c0.632,5.677,2.565,10.928,5.458,15.474c6.503,10.211,17.917,16.872,30.753,16.872  h36.515C201.689,502.883,190.275,496.222,183.772,486.012z"/>
<path style="fill:#FFD41D;" d="M419.661,178.71v16.386H92.339V178.71c0-17.127,13.894-31.021,31.021-31.021H388.64  C405.767,147.689,419.661,161.582,419.661,178.71z"/>
<polygon style="fill:#FFA91F;" points="401.258,195.095 397.854,225.289 114.146,225.289 114.036,224.28 110.742,195.095 "/>
<path d="M403.547,141.454c-0.513-12.338-2.539-24.499-6.064-36.228c-8.929-29.794-27.583-56.585-52.526-75.434  C319.167,10.302,288.405,0,256,0c-79.346,0-144.268,62.9-147.548,141.454c-14.77,5.932-25.23,20.39-25.23,37.255v16.386  c0,5.035,4.082,9.117,9.117,9.117h10.257l30.143,267.335c0.773,6.942,3.07,13.455,6.829,19.362  C147.979,504.116,162.351,512,178.011,512h155.979c23.208,0,42.671-17.386,45.271-40.441l20.185-179.021  c0.564-5.003-3.034-9.517-8.037-10.081c-5.001-0.563-9.517,3.034-10.081,8.037l-20.187,179.022  c-1.56,13.826-13.232,24.25-27.152,24.25H178.011c-9.396,0-18.018-4.73-23.063-12.649c-2.251-3.536-3.626-7.435-4.09-11.601  l-29.912-265.305h270.11l-6.464,57.342c-0.564,5.003,3.034,9.517,8.037,10.081c5.001,0.56,9.517-3.035,10.081-8.038l6.695-59.384  h10.257c5.035,0,9.117-4.082,9.117-9.117V178.71C428.778,161.844,418.317,147.385,403.547,141.454z M410.544,185.979H101.456v-7.269  c0-12.078,9.826-21.904,21.904-21.904h52.418c5.035,0,9.117-4.082,9.117-9.117s-4.082-9.117-9.117-9.117H126.87  C131.565,71.428,187.684,18.233,256,18.233c28.405,0,55.364,9.027,77.963,26.105c21.874,16.53,38.23,40.013,46.057,66.129  c2.741,9.119,4.449,18.538,5.115,28.105H206.166c-5.035,0-9.117,4.082-9.117,9.117s4.082,9.117,9.117,9.117H388.64  c12.078,0,21.904,9.826,21.904,21.904V185.979z"/>
<g>
</g>
<g>
</g>
<g>
</g>
<g>
</g>
<g>
</g>
<g>
</g>
<g>
</g>
<g>
</g>
<g>
</g>
<g>
</g>
<g>
</g>
<g>
</g>
<g>
</g>
<g>
</g>
<g>
</g>
</svg>
