<?xml version="1.0" encoding="UTF-8"?>
<svg width="201px" height="24px" viewBox="0 0 201 24" version="1.1" xmlns="http://www.w3.org/2000/svg" xmlns:xlink="http://www.w3.org/1999/xlink">
    <!-- Generator: sketchtool 63.1 (101010) - https://sketch.com -->
    <title>029A0DC3-9DFB-448E-B9C5-77A4653B55CC</title>
    <desc>Created with sketchtool.</desc>
    <defs>
        <polygon id="path-1" points="0.254635638 0.248470588 19.2469973 0.248470588 19.2469973 24 0.254635638 24"></polygon>
        <polygon id="path-3" points="0 24 200.89166 24 200.89166 0.248470588 0 0.248470588"></polygon>
    </defs>
    <g id="Desktop" stroke="none" stroke-width="1" fill="none" fill-rule="evenodd">
        <g id="Simulacao---resultado-" transform="translate(-540.000000, -18.000000)">
            <g id="Header-desktop">
                <g id="Brand-/-Sorvete-Chat-/-White" transform="translate(540.000000, 18.000000)">
                    <g id="Assinatura">
                        <polygon id="Fill-1" fill="#FF8B22" points="15.163886 5.57142857 9.45486554 16.0576703 9.40227732 16.0576703 3.69254623 5.57142857 0 5.57142857 0 24 3.66589679 24 3.66589679 12.5795116 3.71884035 12.5795116 8.22366147 20.5221935 10.6071873 20.5221935 15.1379472 12.6055705 15.1901801 12.6055705 15.1901801 24 18.8571429 24 18.8571429 5.57142857"></polygon>
                        <g id="Group-21">
                            <path d="M29.3141037,14.2183765 C31.5735718,14.2183765 32.7293218,13.0737882 32.7293218,11.3824941 C32.7293218,9.66578824 31.5995878,8.54696471 29.4719814,8.54696471 L26.6348165,8.54696471 L26.6348165,14.2183765 L29.3141037,14.2183765 Z M22.9836729,5.29531765 L30.0500346,5.29531765 C34.5418856,5.29531765 36.5383431,7.89649412 36.5383431,11.4347294 C36.5383431,14.2444941 35.2250718,16.1694353 32.6502048,17.0020235 L37.3263059,23.7657882 L32.9395878,23.7657882 L28.7627793,17.4442588 L26.6348165,17.4442588 L26.6348165,23.7657882 L22.9836729,23.7657882 L22.9836729,5.29531765 Z" id="Fill-2" fill="#FF8B22"></path>
                            <polygon id="Fill-4" fill="#FF8B22" points="37.6936298 5.29524706 41.6861883 5.29524706 46.2571564 18.5107765 46.3095447 18.5107765 50.8541404 5.29524706 54.7943106 5.29524706 47.8858266 23.7657176 44.6284862 23.7657176"></polygon>
                            <polygon id="Fill-6" fill="#FF8B22" points="64.0388138 5.29524706 67.6642979 5.29524706 76.0442872 17.7565412 76.0963191 17.7565412 76.0963191 5.29524706 79.7478191 5.29524706 79.7478191 23.7657176 76.0442872 23.7657176 67.7694309 11.5645412 67.7163298 11.5645412 67.7163298 23.7657176 64.0388138 23.7657176"></polygon>
                            <polygon id="Fill-8" fill="#FF8B22" points="83.8180691 5.29524706 95.7444255 5.29524706 95.7444255 8.54689412 87.4695691 8.54689412 87.4695691 12.9957176 94.0890266 12.9957176 94.0890266 16.1954824 87.4695691 16.1954824 87.4695691 20.5137176 96.29575 20.5137176 96.29575 23.7657176 83.8180691 23.7657176"></polygon>
                            <path d="M98.1603814,14.5564941 C98.1603814,9.1452 101.68002,5.06131765 107.511871,5.06131765 C110.165142,5.06131765 113.002307,6.10178824 114.919291,8.20884706 L112.319121,10.4461412 C111.163371,9.30155294 109.561073,8.52084706 107.511871,8.52084706 C104.43878,8.52084706 102.022147,10.7842588 102.022147,14.5564941 C102.022147,17.9644941 104.17577,20.6179059 107.670105,20.6179059 C109.009036,20.6179059 110.243903,20.2797882 111.426025,19.5513176 L111.426025,16.8456706 L107.249573,16.8456706 L107.249573,13.6981412 L115.02478,13.6981412 L115.02478,21.6583765 C113.316993,23.0112 110.532929,23.9475529 107.670105,23.9475529 C102.284445,23.9475529 98.1603814,20.4880235 98.1603814,14.5564941" id="Fill-10" fill="#FF8B22"></path>
                            <g id="Group-14" transform="translate(117.606383, 0.000000)">
                                <mask id="mask-2" fill="white">
                                    <use xlink:href="#path-1"></use>
                                </mask>
                                <g id="Clip-13"></g>
                                <path d="M10.840992,0.248258824 L14.4917793,0.248258824 L11.1824069,3.76037647 L7.92506649,3.76037647 L10.840992,0.248258824 Z M15.3852314,14.5307294 C15.3852314,11.0443765 12.9685984,8.49508235 9.76435904,8.49508235 C6.40188564,8.49508235 4.09038564,11.1746118 4.09038564,14.5307294 C4.09038564,17.8864941 6.40188564,20.5660235 9.76435904,20.5660235 C12.9685984,20.5660235 15.3852314,18.0163765 15.3852314,14.5307294 L15.3852314,14.5307294 Z M0.254635638,14.5307294 C0.254635638,9.04143529 4.1164016,5.06131765 9.76435904,5.06131765 C15.2280665,5.06131765 19.2469973,8.88543529 19.2469973,14.5307294 C19.2469973,20.1499059 15.2280665,24.0001412 9.76435904,24.0001412 C4.1164016,24.0001412 0.254635638,20.0196706 0.254635638,14.5307294 L0.254635638,14.5307294 Z" id="Fill-12" fill="#FF8B22" mask="url(#mask-2)"></path>
                            </g>
                            <path d="M139.373792,14.5823647 C139.373792,9.30165882 142.788297,5.06107059 148.830414,5.06107059 C151.510058,5.06107059 154.268106,6.20601176 156.264563,8.62507059 L153.532531,10.8884824 C152.324037,9.43154118 150.747755,8.54707059 148.830414,8.54707059 C145.651835,8.54707059 143.235202,10.8884824 143.235202,14.5823647 C143.235202,18.0161294 145.546702,20.4877765 148.882803,20.4877765 C150.826872,20.4877765 152.455186,19.5253059 153.58492,18.1467176 L156.290579,20.4620118 C154.688281,22.4391882 152.166515,23.9476588 148.882803,23.9476588 C143.681749,23.9476588 139.373792,20.6702471 139.373792,14.5823647" id="Fill-15" fill="#FF8B22"></path>
                            <mask id="mask-4" fill="white">
                                <use xlink:href="#path-3"></use>
                            </mask>
                            <g id="Clip-18"></g>
                            <polygon id="Fill-17" fill="#FF8B22" mask="url(#mask-4)" points="159.20483 23.7656471 162.961463 23.7656471 162.961463 5.29517647 159.20483 5.29517647"></polygon>
                            <path d="M181.507027,14.5306588 C181.507027,11.0443059 179.090394,8.49501176 175.885442,8.49501176 C172.522612,8.49501176 170.211112,11.1745412 170.211112,14.5306588 C170.211112,17.8864235 172.522612,20.5659529 175.885442,20.5659529 C179.090394,20.5659529 181.507027,18.0163059 181.507027,14.5306588 M166.376075,14.5306588 C166.376075,9.04136471 170.237841,5.06124706 175.885442,5.06124706 C181.349149,5.06124706 185.368437,8.88536471 185.368437,14.5306588 C185.368437,20.1498353 181.349149,24.0000706 175.885442,24.0000706 C170.237841,24.0000706 166.376075,20.0196 166.376075,14.5306588" id="Fill-19" fill="#FF8B22" mask="url(#mask-4)"></path>
                            <path d="M187.468423,21.0602471 L189.701163,18.3546 C191.093907,19.9156588 192.879743,20.6702471 194.350891,20.6702471 C196.137083,20.6702471 197.004163,19.8634235 197.004163,18.7188353 C197.004163,17.3660118 196.031594,16.8715412 193.772838,16.0915412 C190.935673,15.1287176 188.125237,13.8538941 188.125237,10.3421294 C188.125237,7.37636471 190.778152,5.08718824 194.114253,5.06107059 C196.42611,5.06107059 198.55336,5.89365882 200.418668,7.40248235 L198.265046,10.1600118 C196.71478,8.91130588 195.348764,8.33883529 194.193014,8.33883529 C192.906115,8.33883529 191.960274,9.01542353 191.934259,10.1857765 C191.934259,11.3307176 192.932131,11.7990706 195.086466,12.6313059 C198.317078,13.8800118 200.891945,14.7126 200.891945,18.2766 C200.891945,22.3350706 197.292477,24.0002471 194.272131,24.0002471 C191.881514,24.0002471 189.438509,23.0635412 187.468423,21.0602471" id="Fill-20" fill="#FF8B22" mask="url(#mask-4)"></path>
                        </g>
                    </g>
                </g>
            </g>
        </g>
    </g>
</svg>